<?xml version="1.0" encoding="utf-8"?>
<!-- Generator: Adobe Illustrator 22.0.0, SVG Export Plug-In . SVG Version: 6.00 Build 0)  -->
<svg version="1.1" id="Calque_1" xmlns="http://www.w3.org/2000/svg" xmlns:xlink="http://www.w3.org/1999/xlink" x="0px" y="0px"
	 viewBox="0 0 432 432" style="enable-background:new 0 0 432 432;" xml:space="preserve">
<style type="text/css">
	.st0{fill:#100A13;}
	.st1{fill:#BB8B6A;}
	.st2{fill:#DDBEC9;}
	.st3{fill:#DFA1B6;}
	.st4{fill:#F2EDED;}
	.st5{fill:#B73A30;}
	.st6{fill:#21381D;}
	.st7{fill:#355932;}
	.st8{fill:#CB9742;}
	.st9{fill:#912A27;}
	.st10{fill:#CF394B;}
	.st11{fill:#E6E6E4;}
	.st12{fill:#191B1F;}
	.st13{fill:#5C8D4B;}
	.st14{fill:#263B2A;}
	.st15{fill:#C13462;}
	.st16{fill:#E5D758;}
	.st17{fill:#4D9F54;}
	.st18{fill:#C43537;}
	.st19{fill:#ECEAE5;}
	.st20{fill:#E2C2A2;}
	.st21{fill:#A8302D;}
	.st22{fill:#F5F4F4;}
	.st23{fill:#D5B392;}
	.st24{fill:#221F20;}
	.st25{fill:#F2F1F0;}
	.st26{fill:#1B3B1F;}
	.st27{fill:#295A33;}
	.st28{fill:#DCBB9E;}
	.st29{fill:#EDB9C5;}
	.st30{fill:#8E2927;}
	.st31{fill:#2D6942;}
	.st32{fill:#8E2B34;}
	.st33{fill:#490C19;}
	.st34{fill:#BE3430;}
	.st35{fill:#202124;}
	.st36{fill:#BDDFE1;}
	.st37{fill:#E6E5E4;}
	.st38{fill:#040304;}
	.st39{fill:#E9963E;}
	.st40{fill:#A98C7C;}
	.st41{fill:#8A6C5D;}
	.st42{fill:#242122;}
	.st43{fill:#FFFFFF;}
	.st44{fill:#C9363B;}
	.st45{fill:#A52F39;}
	.st46{fill:#93766B;}
	.st47{fill:#9B7F71;}
	.st48{fill:#103B24;}
	.st49{fill:#345730;}
	.st50{fill:#BBA585;}
	.st51{fill:#AF3134;}
	.st52{fill:#F2EDE5;}
	.st53{fill:#98BC53;}
	.st54{fill:#D7AB46;}
	.st55{fill:#BAA485;}
	.st56{fill:#47291D;}
	.st57{fill:#B2322F;}
	.st58{fill:#953129;}
	.st59{fill:#20090C;}
	.st60{fill:#E0D2CE;}
	.st61{fill:#DAAE47;}
	.st62{fill:#5B4533;}
	.st63{fill:#428C4D;}
	.st64{fill:#C7393E;}
	.st65{fill:#3B4824;}
	.st66{fill:#46572E;}
	.st67{fill:#C83631;}
	.st68{fill:#8E2926;}
	.st69{fill:#D2BB9F;}
	.st70{fill:#E6D7C6;}
	.st71{fill:#BDA284;}
	.st72{fill:#832529;}
	.st73{fill:#9F2E2B;}
	.st74{fill:#459558;}
	.st75{fill:#DB453F;}
	.st76{fill:#D5D9B9;}
	.st77{fill:#E6E6D6;}
	.st78{fill:#E6EDC3;}
	.st79{fill:#AFD9DF;}
	.st80{fill:#5BAFB9;}
	.st81{fill:#7F7165;}
	.st82{fill:#50433C;}
	.st83{fill:#B2B7A0;}
	.st84{fill:#B1977E;}
	.st85{fill:#D6B88D;}
	.st86{fill:#A07965;}
	.st87{fill:#A7A5A0;}
	.st88{fill:#979984;}
	.st89{fill:#4F4F4B;}
	.st90{fill:#646D74;}
	.st91{fill:#545B52;}
	.st92{fill:#915452;}
	.st93{fill:#623D3E;}
	.st94{fill:#4E423E;}
	.st95{fill:#978F87;}
	.st96{fill:#732E24;}
	.st97{fill:#8F2A27;}
	.st98{fill:#AA8750;}
	.st99{fill:#677565;}
	.st100{fill:#4F3717;}
	.st101{fill:#799375;}
	.st102{fill:#D07783;}
	.st103{fill:#9A4655;}
	.st104{fill:#ECC4CB;}
	.st105{fill:#B7B86F;}
	.st106{fill:#5A5D34;}
	.st107{fill:#D1A697;}
	.st108{fill:#CBBDA4;}
	.st109{fill:#A16560;}
	.st110{fill:#330024;}
	.st111{fill:#3C4A43;}
	.st112{fill:#631735;}
	.st113{fill:#6A474C;}
	.st114{fill:#E5BC9F;}
	.st115{fill:#E8D3CC;}
	.st116{fill:#D16C64;}
	.st117{fill:#749098;}
	.st118{fill:#E69598;}
</style>
<path class="st91" d="M126,143.6c-0.5-0.2-0.8-0.3-1.2-0.4c-0.3-0.1-0.7-0.2-0.9-0.4c-0.2-0.1-0.3-0.5-0.2-0.7
	c0.1-0.2,0.4-0.3,0.7-0.3c0.2,0,0.5,0.1,0.7,0.2c0.5,0.2,1,0.4,1.5,0.6c0.2-0.2,0.4-0.5,0.6-0.7c0.4-0.4,0.8-0.8,1.2-1.1
	c1.4-0.9,3-0.6,3.9,0.6c0.5,0.6,0.9,1.4,1.1,2.2c0.4,1.3,0.6,2.6,0.9,3.9c0,0.2,0.1,0.4,0.2,0.7c0.4-0.1,0.8-0.2,1.2-0.3
	c0.6-0.2,1.3-0.4,1.9-0.6c0.4-0.1,0.8-0.1,0.9,0.4c0.1,0.4-0.2,0.7-0.5,0.8c-0.9,0.4-1.9,0.7-2.9,1c-0.1,0-0.3,0.1-0.5,0.1
	c0,0.7,0.1,1.3,0.1,2c0.2,2.4,0.4,4.7,1.1,7c0.4,1.5,1.1,2.9,1.9,4.1c0.2,0.2,0.4,0.5,0.6,0.8c0.1-0.5,0.3-0.9,0.3-1.3
	c0.6-2.6,1.3-5.1,2.3-7.6c0.6-1.5,1.3-2.9,2.3-4.2c0.3-0.4,0.3-0.7,0.1-1.2c-0.4-1-0.7-1.9-1.1-2.9c-0.1-0.2-0.1-0.4-0.2-0.6
	c-0.1-0.3,0.1-0.6,0.4-0.6c0.2,0,0.5,0.1,0.6,0.2c0.2,0.2,0.2,0.4,0.3,0.6c0.4,0.9,0.8,1.8,1.2,2.8c0.2-0.1,0.4-0.2,0.6-0.3
	c0.4-0.3,0.9-0.6,1.4-0.7c1.4-0.5,2.8-0.2,3.7,0.9c0.7,0.8,1.1,1.7,1.4,2.7c0.6,2.1,0.9,4.3,1.1,6.5c0,0.3,0,0.6,0.1,1
	c1.2-0.3,2.4-0.6,3.6-0.9c0.4-0.1,0.8-0.4,1.1,0.2c0.2,0.3-0.1,0.7-0.8,1c-1.1,0.4-2.2,0.7-3.2,1c-0.2,0.1-0.3,0.1-0.6,0.2
	c-0.1,6.3-1.3,12.5-3.2,18.6c0.8,0.2,1.5,0.3,2.2,0.5c0.5,0.1,1.1,0.2,1.6,0.4c0.2,0.1,0.5,0.1,0.7,0.3c0.1,0.1,0.2,0.4,0.2,0.6
	c0,0.1-0.3,0.3-0.5,0.3c-0.2,0-0.5,0-0.7-0.1c-1.3-0.2-2.6-0.4-3.9-0.7c-1.2,2.5-2.2,5-3.5,7.4c-1.2,2.4-2.7,4.7-4.5,6.9
	c0.4,0.3,0.8,0.5,1.2,0.8c0.8,0.4,1.6,0.8,2.3,1.2c0.2,0.1,0.4,0.2,0.6,0.3c0.3,0.2,0.5,0.4,0.3,0.8c-0.2,0.3-0.4,0.4-0.8,0.3
	c-0.2,0-0.4-0.1-0.6-0.2c-1.3-0.6-2.6-1.3-4.1-1.9c-2.9,3-6.5,5.2-10.4,7.1c0.5,1,1,2,1.5,3c0.1,0.2,0.2,0.4,0.3,0.7
	c0.2,0.3,0.1,0.6-0.2,0.8c-0.3,0.2-0.6,0.1-0.8-0.1c-0.2-0.2-0.4-0.5-0.5-0.8c-0.5-1-1-1.9-1.5-2.8c-2.3,0.8-4.6,1.5-6.9,2.3
	c-0.2,0.6-0.3,11-0.1,12.6c0.3,0,0.5,0,0.8,0c1.1,0,2.1,0,3.2,0c0.4,0,0.7,0.1,0.7,0.6c0,0.5-0.4,0.6-0.7,0.6c-1,0.1-2,0.1-3,0.1
	c-0.3,0-0.6,0-1,0c-0.1,1.1-0.1,2.2-0.2,3.2c-0.2,4.1-0.5,8.1-1.3,12.1c-0.3,1.7-0.9,3.2-1.8,4.7c-0.8,1.3-1.9,2.3-3.3,3
	c-2,1-3.8,0.5-5-1.3c-1.2-1.8-1.7-3.9-2-5.9c-0.5-3-0.5-6-0.6-9c0-0.4,0-0.7,0-1.2c-0.6,0-1.1,0-1.6,0c-0.3,0-0.6,0-0.8-0.1
	c-0.2-0.1-0.5-0.3-0.5-0.5c0-0.2,0.3-0.5,0.5-0.6c0.5-0.1,1.1-0.1,1.6-0.2c0.2,0,0.5,0,0.8,0c0.2-5.1,0.4-10.2,0.6-15.4
	c-0.5-0.1-1-0.1-1.4-0.2c-0.6-0.1-1.2-0.1-1.8-0.2c-0.3-0.1-0.7-0.2-0.7-0.6c0-0.5,0.4-0.6,0.8-0.6c0.7,0,1.3,0,2,0.1
	c0.4,0,0.7,0.1,1.2,0.1c0.1-1.2,0.1-2.3,0.2-3.4c-0.8-0.4-1.6-0.8-2.3-1.1c-3.2-1.3-6.2-2.8-9-4.8c0,0-0.1,0-0.3-0.1
	c-0.3,0.4-0.6,0.8-1,1.2c-0.3,0.3-0.6,0.7-0.9,0.9c-0.4,0.4-0.8,0.4-1.1,0.1c-0.3-0.4-0.1-0.7,0.1-1c0.5-0.6,0.9-1.2,1.4-1.8
	c0.1-0.1,0.2-0.2,0.3-0.4c-6.3-6.4-5.9-6.6-8.9-13.3c-0.2,0.1-0.5,0.1-0.8,0.2c-0.4,0.1-0.8,0.2-1.2,0.3c-0.4,0.1-0.8,0-0.9-0.4
	c-0.1-0.4,0.2-0.6,0.5-0.8c0.3-0.1,0.6-0.3,0.9-0.4c0.3-0.1,0.6-0.2,1-0.4c-1.3-5.5-2.2-11.1-2.2-16.8c-0.9-0.1-1.7-0.2-2.6-0.3
	c-0.4-0.1-0.7-0.1-1.1-0.2c-0.2-0.1-0.4-0.4-0.4-0.6c0-0.2,0.2-0.4,0.4-0.5c0.3-0.1,0.7-0.1,1.1-0.1c0.8,0.1,1.6,0.2,2.4,0.3
	c0.2-3.6,0.3-7.1,1-10.6c-0.8-0.5-1.5-1-2.2-1.6c-0.3-0.2-0.8-0.5-0.5-1c0.1-0.4,0.6-0.4,1.2,0c0.6,0.3,1.2,0.7,1.8,1.2
	c0.1-0.2,0.2-0.4,0.3-0.5c0.3-0.6,0.5-1.2,0.8-1.8c1-1.8,3-2,4.4-0.5c0.5,0.6,0.9,1.2,1.3,1.8c0.2,0.3,0.4,0.7,0.7,1.2
	c0.2-0.2,0.4-0.4,0.6-0.6c0.2-0.2,0.3-0.4,0.6-0.5c0.2-0.1,0.5,0,0.6,0.1c0.1,0.1,0.1,0.5,0.1,0.6c-0.2,0.3-0.5,0.6-0.7,0.9
	c-0.2,0.2-0.3,0.4-0.4,0.5c1,3,2,6,2.9,8.9c0.6-0.2,1-0.7,1.6-1c0.2-0.1,0.4-0.3,0.7-0.5c0.3-0.2,0.7-0.2,0.9,0.1
	c0.2,0.3,0,0.6-0.2,0.8c-0.7,0.6-1.5,1.1-2.2,1.6c-0.1,0.1-0.3,0.2-0.5,0.3c0.7,4,1.5,7.9,2.2,12c0.6-0.2,1.2-0.4,1.8-0.5
	c0.7-0.2,1.1-0.1,1.2,0.3c0.1,0.4-0.1,0.6-0.8,0.9c-0.6,0.2-1.2,0.4-1.9,0.7c0.8,4,1.6,7.9,3.6,11.6c0.3-0.3,0.5-0.5,0.7-0.7
	c0.2-0.2,0.5-0.5,0.7-0.7c0.5-0.4,0.8-0.5,1.1-0.2c0.3,0.3,0.2,0.6-0.2,1c-0.5,0.6-1.1,1.2-1.6,1.8c1.2,2,2.4,3.7,4.5,5.1
	c0.1-3.9-0.2-7.6-0.2-11.4c-0.9-0.1-1.6-0.2-2.4-0.3c-0.7-0.1-1.1-0.3-1.1-0.7c0-0.4,0.4-0.6,1.2-0.6c0.7,0,1.5,0.1,2.2,0.2
	c0-6.3,0-12.5,0-18.9c-0.4,0-0.7,0-1.1,0c-0.5-0.1-1-0.1-1.5-0.2c-0.2-0.1-0.4-0.4-0.4-0.6c0-0.2,0.3-0.5,0.5-0.5c0.5-0.1,1,0,1.5,0
	c0.3,0,0.7,0.1,1.1,0.1c0-5.8,0-11.5,0-17.3c-0.6-0.1-1.3-0.1-1.9-0.2c-0.4-0.1-0.7-0.1-1-0.3c-0.2-0.1-0.5-0.5-0.4-0.7
	c0-0.4,0.4-0.5,0.8-0.4c0.7,0.1,1.3,0.2,2,0.3c0.2,0,0.4,0.1,0.6,0.1c0-1,0-1.9,0-2.8c-2.1-0.9-4.2-1.9-6.4-2.8
	c-0.3,0.4-0.5,0.9-0.8,1.4c-0.2,0.4-0.5,0.7-0.7,1.1c-0.2,0.3-0.5,0.4-0.8,0.3c-0.3-0.2-0.4-0.5-0.2-0.8c0.2-0.5,0.4-1,0.7-1.5
	c0.2-0.4,0.4-0.7,0.6-1.1c-4.7-2.6-8.2-6.2-10.8-10.9c-0.5,0.2-1,0.4-1.5,0.5c-0.3,0.1-0.7,0.2-1.1,0.2c-0.2,0-0.5-0.3-0.6-0.5
	c0-0.2,0.1-0.5,0.3-0.7c0.3-0.2,0.7-0.3,1-0.4c0.3-0.1,0.7-0.2,1.2-0.4c-1.9-4-2.8-8.2-3.5-12.6c-0.7,0-1.2,0-1.8,0
	c-0.7,0-1.1-0.3-1.1-0.6c0-0.4,0.4-0.7,1.1-0.7c0.5,0,1,0,1.6,0c0-2-0.2-3.9-0.1-5.8c0-1.9,0.3-3.8,0.4-5.8
	c-0.9-0.6-1.7-1.2-2.6-1.8c-0.3-0.2-0.6-0.4-0.7-0.7c-0.1-0.2-0.2-0.5-0.1-0.7c0.1-0.3,0.5-0.4,0.8-0.2c0.5,0.2,1,0.5,1.4,0.8
	c0.5,0.3,1,0.7,1.6,1.1c0.1-0.5,0.2-0.9,0.3-1.2c0.5-1.3,0.9-2.7,1.5-3.9c0.3-0.7,0.9-1.4,1.6-1.9c1-0.8,2.3-0.8,3.3,0.1
	c0.4,0.4,0.8,0.9,1.1,1.4c1.2,1.9,1.9,4.1,2.4,6.3c0.4,1.5,0.7,3.1,1.1,4.7c0.2-0.1,0.4-0.2,0.4-0.4c0.5-0.8,1-1.6,1.4-2.5
	c0.5-1.1,1-2.3,1.5-3.5c-0.6-0.4-1.1-0.8-1.6-1.2c-0.2-0.1-0.4-0.3-0.6-0.5c-0.2-0.2-0.4-0.5-0.2-0.8c0.2-0.3,0.5-0.4,0.8-0.2
	c0.5,0.3,1,0.6,1.6,0.9c0.1,0.1,0.2,0.2,0.4,0.3c0.1-0.2,0.2-0.4,0.3-0.5c0.4-0.8,0.8-1.7,1.2-2.5c0.2-0.4,0.5-0.8,0.8-1.2
	c1-1.2,1.9-1.3,3.4-0.5c0.2-0.2,0.4-0.5,0.6-0.8c0.2-0.2,0.3-0.5,0.5-0.6c0.2-0.2,0.5-0.3,0.8-0.1c0.3,0.2,0.3,0.5,0.1,0.8
	c-0.2,0.4-0.5,0.8-0.8,1.1c-0.1,0.2-0.2,0.4-0.4,0.6c2,3.9,1.3,7.9,0.2,11.9c0.8,0.1,1.5,0.2,2.2,0.3c0.2,0,0.4,0,0.6,0.1
	c0.1,0.1,0.3,0.2,0.3,0.4c0,0.2-0.1,0.4-0.3,0.5c-0.2,0.1-0.5,0.1-0.8,0.1c-0.8-0.1-1.6-0.2-2.5-0.3c-1,2.6-2.7,4.9-4.7,7
	c0.6,0.7,1.2,1.3,1.7,1.9c0.2,0.2,0.5,0.5,0.2,0.8c-0.3,0.3-0.6,0.2-0.9,0c-0.4-0.3-0.7-0.6-1.1-1c-0.3-0.3-0.5-0.6-0.7-0.9
	c-1,0.7-1.8,1.3-2.6,1.9c0.4,3.1,2.4,8.3,3.9,10c0.7-0.8,1.4-1.5,2.1-2.3c0.1-0.1,0.1-0.2,0.2-0.3c0.2-0.1,0.4-0.2,0.5-0.1
	c0.1,0.1,0.3,0.4,0.3,0.5c0,0.3-0.2,0.6-0.4,0.8c-0.6,0.9-1.3,1.7-2,2.6c1.2,1.6,2.5,3.1,4.4,4.4c0.1-1.1,0.2-2,0.2-2.9
	c0.2-2.3,0.4-4.6,1.1-6.8c0.3-1,0.8-2,1.2-3.2c-0.4-0.5-0.9-1.1-1.4-1.6c-0.3-0.4-0.6-0.7-0.8-1.1c-0.2-0.3-0.2-0.6,0.1-0.8
	c0.3-0.2,0.5-0.1,0.7,0.1c0.4,0.4,0.8,0.8,1.2,1.2c0.3,0.4,0.7,0.7,1,1.1c0.3-0.3,0.6-0.6,1-0.8c1.1-0.8,2.2-1.2,3.6-0.9
	c0.9,0.2,1.6,0.9,2.2,1.6c0.3,0.4,0.6,0.8,0.9,1.2c0.6-0.6,1.2-1.1,1.8-1.7c0.2-0.2,0.5-0.4,0.8-0.6c0.2-0.1,0.5-0.1,0.6,0
	c0.1,0.1,0.2,0.4,0.1,0.6c-0.1,0.3-0.3,0.5-0.5,0.7c-0.7,0.7-1.4,1.4-2.2,2.1c1.7,4.3,1.8,8.7,2,13.3c0.2-0.2,0.4-0.3,0.5-0.4
	c0.6-0.9,1.3-1.8,1.8-2.7c1.1-2.1,1.8-4.4,2.7-6.8c-0.6-0.2-1.1-0.4-1.6-0.6c-0.2-0.1-0.3-0.1-0.5-0.2c-0.3-0.1-0.5-0.4-0.4-0.7
	c0.1-0.3,0.4-0.5,0.7-0.4c0.6,0.1,1.1,0.3,1.7,0.5c0.2,0.1,0.3,0.1,0.6,0.2c0.2-0.4,0.3-0.8,0.5-1.1c0.6-1.3,1.2-2.5,2.1-3.6
	c1-1.2,2.2-1.9,3.8-1.5c0.1,0,0.2,0,0.3,0c0.2-0.6,0.5-1.2,0.7-1.9c0.1-0.3,0.3-0.6,0.4-0.9c0.3-0.6,0.5-0.7,0.9-0.6
	c0.3,0.1,0.4,0.4,0.2,1c-0.4,1-0.7,2.1-1.1,3.1c1.1,1.3,1.7,2.9,1.7,4.6c0.1,1.6-0.1,3.3-0.1,5c0.8,0.1,1.7-0.1,2.6-0.2
	c0.6-0.1,0.9,0,1,0.4c0.1,0.4-0.2,0.7-0.7,0.8c-0.8,0.2-1.6,0.2-2.4,0.3c-0.3,0-0.5,0-0.9,0.1c-1,3.4-2.8,6.4-4.9,9.3
	c1,0.4,1.9,0.8,2.8,1.2c0.2,0.1,0.5,0.2,0.6,0.3c0.1,0.2,0.3,0.5,0.2,0.6c-0.1,0.2-0.4,0.3-0.6,0.3c-0.2,0-0.5-0.1-0.7-0.2
	c-1-0.4-2.1-0.8-3.3-1.3c-0.3,0.3-0.5,0.7-0.9,1c-2,2-4.4,3.7-6.8,5.1c-0.5,0.3-0.6,0.6-0.6,1.1c0,7.2,0.1,14.4,0.1,21.5
	c0,0.4,0,0.8,0,1.3c0.3,0,0.6,0,0.8,0c1,0,2,0,2.9-0.1c0.2,0,0.3,0,0.4,0c0.2,0.1,0.4,0.3,0.5,0.6c0,0.1-0.2,0.4-0.4,0.5
	c-0.4,0.1-0.8,0.2-1.3,0.2c-0.9,0.1-1.9,0.1-2.9,0.2c-0.1,5.2-0.1,10.3-0.2,15.5c0.4,0,0.7,0,1.1,0c0.9,0,1.8,0,2.7,0
	c0.6,0,0.9,0.3,0.8,0.7c-0.1,0.5-0.4,0.6-0.8,0.6c-0.9,0-1.8,0-2.7,0c-0.3,0-0.7,0-1,0c0,3.8,0,7.6,0,11.5c2.2-1,4-2.4,5.7-4.1
	c-0.6-0.6-1.2-1.1-1.7-1.6c-0.2-0.2-0.5-0.5-0.7-0.8c-0.2-0.3-0.2-0.6,0-0.8c0.2-0.2,0.5-0.2,0.8,0c0.6,0.4,1.1,0.9,1.6,1.3
	c0.3,0.3,0.6,0.5,0.9,0.9c2.9-3.5,4.6-7.6,6.1-11.9c-0.5-0.2-1-0.3-1.5-0.4c-0.2-0.1-0.5-0.1-0.7-0.2c-0.3-0.1-0.5-0.3-0.4-0.6
	c0.1-0.2,0.4-0.5,0.6-0.5c0.4,0,0.8,0,1.3,0.1c0.4,0.1,0.7,0.2,1.2,0.3c0.4-1.5,0.8-3,1.1-4.3c-1-0.6-2-1.1-3-1.7
	c-0.3,0.6-0.7,1.2-1,1.9c-0.1,0.3-0.3,0.5-0.4,0.8c-0.3,0.5-0.6,0.6-0.9,0.4c-0.4-0.3-0.3-0.7-0.1-1c0.4-0.9,0.8-1.8,1.3-2.6
	c0.1-0.2,0.2-0.3,0.3-0.5c-2.7-3.2-4.7-6.9-6-10.9c-0.4,0.1-0.7,0.2-1,0.3c-0.2,0.1-0.5,0.1-0.7,0.1c-0.2-0.1-0.4-0.3-0.5-0.5
	c0-0.1,0.1-0.4,0.3-0.5c0.1-0.1,0.4-0.2,0.6-0.3c0.3-0.1,0.6-0.3,1-0.4C124.8,153,124,148.3,126,143.6z M100.2,101.4
	c0.5,0,1,0.1,1.6,0.1c1.2-2.7,2.2-5.6,2.7-8.8c-0.6,0.5-0.8,1.1-1,1.6c-0.7,1.7-1.5,3.4-2.2,5.1
	C100.9,100.1,100.5,100.8,100.2,101.4c-0.6,1.4-1.5,2.5-2.8,3.3c0.2,1,0.3,1.9,0.5,3c1.3-1.7,2.5-3.1,3.3-4.9
	C100.6,102.4,100.2,102.1,100.2,101.4z M100.2,110.3c0.1-0.1,0.2-0.3,0.3-0.4c0.8-0.9,1.6-1.8,2.3-2.7c2.4-3.2,3.4-6.9,3.5-10.9
	c0-0.5,0-1-0.3-1.5c-1.3,5.2-3,10.1-6.9,14.1C99.7,109.2,100.4,109.4,100.2,110.3c-0.6-0.2-1.2-0.3-2-0.6c0.1,0.7,0.2,1.2,0.3,1.8
	C99.2,111.1,99.7,110.7,100.2,110.3z M113.3,240.8c1-14.8,0.9-29.4,0.9-44c-0.8-0.4-1.5-0.6-2.1-1c-0.5-0.3-0.6-0.7-0.4-1
	c0.3-0.4,0.6-0.3,1-0.2c0.5,0.2,0.9,0.4,1.5,0.6c0-0.4,0-0.7,0-1c-0.2-6.6-0.3-13.1-0.5-19.7c-0.2-7.2-0.3-14.4-0.4-21.6
	c-0.1-6.8-0.2-13.7,0.1-20.5c0-0.2,0-0.4,0-0.6c-0.4-0.2-0.8-0.3-1.1-0.5c-0.3-0.2-0.7-0.4-1-0.7c-0.2-0.2-0.4-0.5-0.1-0.7
	c0.2-0.1,0.5-0.2,0.7-0.2c0.2,0,0.4,0.2,0.7,0.3c0.3,0.1,0.5,0.3,0.9,0.4c0.3-4.7,0.5-9.4,0.8-14c-0.1,0-0.1-0.1-0.2-0.1
	c-0.4,0.4-0.8,0.8-1.1,1.3c-0.7,1-1.2,2.1-1.5,3.3c-0.9,3.2-1,6.6-1,9.9c-0.1,15.2,0,30.4,0,45.7c0,1,0.1,1.9,0.1,2.9
	c0,1.1,0,2.2,0,3.3c0,1.6,0.1,3.2,0.1,4.9c0,1.5,0.1,3,0.1,4.5c0.1,2.7,0.2,5.4,0.2,8.2c0,2.5-0.2,4.9-0.2,7.4
	c-0.1,6.3-0.2,12.5-0.2,18.8c0,3,0,5.9,0.5,8.9c0.2,1.6,0.6,3.2,1.4,4.6C112.5,240.3,112.7,240.7,113.3,240.8z M115.1,239.5
	c0.1,0,0.2,0.1,0.2,0.1c0.4-0.5,0.8-1,1-1.6c0.4-1,0.9-2.1,1.1-3.2c0.8-3.8,1.1-7.7,1.2-11.6c0.2-6.7,0.3-13.3,0.4-20
	c0.1-7,0-14.1,0-21.1c0-5.3,0.1-10.6,0.1-15.9c0-9.3-0.1-18.5-0.2-27.8c0-3.8-0.1-7.6-0.3-11.4c-0.1-2.1-0.3-4.2-0.9-6.2
	c-0.3-1-0.6-1.9-1-2.9c-0.2-0.6-0.6-1.2-1.3-1.6c-0.5,11.2-1,22.2-0.5,33.3c0.2-0.1,0.4-0.1,0.6-0.2c0.5-0.2,1-0.4,1.5-0.5
	c0.2,0,0.5,0.1,0.7,0.3c0.2,0.3,0,0.5-0.3,0.7c-0.2,0.1-0.5,0.3-0.7,0.4c-0.6,0.3-1.2,0.5-1.7,0.8c0.1,3.8,0.2,7.5,0.3,11.3
	c0.1,3.7,0.1,7.4,0.2,11.3c0.6-0.3,1-0.6,1.5-0.8c0.3-0.2,0.7-0.5,1.1,0c0.2,0.3,0.1,0.6-0.4,1c-0.6,0.5-1.3,0.9-2.1,1.4
	c0.1,4.8,0.2,9.6,0.3,14.4c0.1,4.8,0.1,9.6,0.2,14.4c0,4.8-0.1,9.6-0.1,14.5c0.2,0,0.4,0,0.6,0c0.3,0,0.7-0.2,1-0.1
	c0.2,0,0.5,0.2,0.5,0.4c0.1,0.2-0.1,0.5-0.3,0.6c-0.2,0.2-0.5,0.2-0.8,0.3c-0.4,0.1-0.8,0.2-1.2,0.3
	C115.9,226.4,115.8,233,115.1,239.5z M121.9,202.9c0.6,0.2,0.6,0.2,1.1,0c3.5-1.2,6.8-2.8,9.9-4.7c3.1-2,5.7-4.4,7.8-7.5
	c2.2-3.3,4-6.8,5.4-10.5c1.6-4.2,2.6-8.6,3.3-13c0.4-2.8,0.6-5.6,0.5-8.5c-0.1-2.1-0.3-4.1-0.9-6.2c0-0.2-0.2-0.3-0.3-0.7
	c-1.3,8.1-3.5,15.8-6,23.5c0.5,0.2,1,0.4,1.5,0.5c0.3,0.1,0.5,0.3,0.5,0.7c-0.1,0.4-0.4,0.5-0.8,0.4c-0.2,0-0.4-0.1-0.5-0.1
	c-0.4-0.1-0.7-0.2-1.1-0.2c-0.4,1-0.7,1.9-1.1,2.8c-1.6,4.3-3.5,8.5-6.1,12.3c-2.4,3.6-5.4,6.4-9.4,8.2c-1.1,0.5-2,1.1-3.1,1.6
	C122,201.8,121.7,202.2,121.9,202.9z M92.3,179.2c-0.3,0.3-0.6,0.5-0.9,0.7c-0.3,0.2-0.6,0.3-0.8,0.1c-0.2-0.2-0.1-0.5,0.1-0.7
	c0.3-0.3,0.5-0.7,0.8-1c0.4-0.4,0.4-0.8,0.3-1.3c-1.2-4.9-2-9.8-2.5-14.8c-0.3-3.2-0.5-6.4-0.8-9.6c0-0.2-0.1-0.5-0.1-0.7
	c-0.3,0.6-0.4,1.2-0.5,1.8c-0.6,3-0.7,6-0.8,9c-0.2,6.2,0.6,12.2,2.1,18.2c1.5,6,4.6,10.9,9.6,14.7c2.9,2.2,6.1,3.8,9.4,5.3
	c0.1,0,0.2,0,0.3,0c0-0.5,0-0.9,0-1.4c0-0.5-0.2-0.7-0.6-0.9c-0.6-0.3-1.3-0.6-1.9-0.9c-4-1.8-7.1-4.6-9.3-8.5
	c-1.6-2.9-2.9-5.8-3.9-9C92.5,179.8,92.4,179.5,92.3,179.2z M108.1,196.6c0.2-0.5,0.1-0.6-0.3-0.8c-2-0.8-3.5-2.4-4.7-4.1
	c-1.7-2.3-3-4.9-3.9-7.6c-1-3-1.7-6.2-2.4-9.3c-0.9-4.3-1.8-8.5-2.8-12.8c-0.7-3-1.7-6-3.1-8.8c-0.3-0.5-0.6-1-0.9-1.6
	c0.4,4.7,0.6,9.3,1.4,14c0.4-0.2,0.7-0.4,1-0.5c0.3-0.1,0.6-0.2,1-0.2c0.2,0,0.4,0.2,0.5,0.3c0,0.1-0.1,0.4-0.3,0.5
	c-0.5,0.3-1,0.7-1.4,1c-0.4,0.2-0.5,0.6-0.4,1c0.4,2.2,0.8,4.5,1.3,6.7c1.2,5.3,3.1,10.3,6,14.9
	C101.1,192.8,104.4,194.8,108.1,196.6z M108,136.1c-0.2-0.1-0.2-0.2-0.3-0.2c-0.6-0.3-1.2-0.6-1.8-0.9c-3.7-2-6.8-4.7-8.9-8.3
	c-1.4-2.3-2.4-4.8-3.2-7.4c-0.1-0.3-0.2-0.6-0.3-0.9c-0.6,0-1.1,0.1-1.5,0.1c-0.3,0-0.6-0.1-0.7-0.4c-0.1-0.4,0.2-0.5,0.5-0.6
	c0.4-0.1,0.8-0.2,1.3-0.3c-2.2-7.7-3.4-15.6-3-23.6c-0.2,0.4-0.4,0.8-0.5,1.2c-1.1,3.2-1.4,6.5-1.4,9.8c-0.1,4.9,0.6,9.7,2,14.4
	c1.7,5.8,4.9,10.6,9.9,14.1c2.4,1.7,5.1,2.9,7.8,4.2c0.1,0,0.2,0,0.3,0C108,136.8,108,136.5,108,136.1z M100.9,128.7
	c0.1-0.4,0.1-0.7,0.2-1c0.1-0.3,0.3-0.5,0.6-0.4c0.2,0.1,0.4,0.3,0.4,0.5c0.1,0.4,0.1,0.9,0.1,1.3c-0.1,0.6,0.1,1,0.6,1.4
	c1.5,1.3,3.1,2.4,4.8,3.4c0.1,0.1,0.3,0.1,0.5,0.2c0-0.9,0-1.8,0-2.7c-1.7-0.7-3.1-1.8-4.3-3.1c-1.8-1.9-3.3-4-4.4-6.4
	c-1.5-3.1-2.4-6.5-3.1-9.9c-0.7-3.7-1.3-7.4-2-11.1c-0.4-2.3-1-4.6-2-6.7c-0.1-0.2-0.2-0.4-0.5-0.8c0.1,4.5,0.2,8.7,1.1,13.1
	c0.3-0.3,0.4-0.6,0.6-0.8c0.2-0.3,0.5-0.4,0.8-0.2c0.3,0.2,0.2,0.5,0.1,0.8c-0.3,0.5-0.6,1-0.9,1.5c-0.2,0.3-0.3,0.6-0.2,1
	c0.7,3.7,1.7,7.3,2.9,10.8c1,2.7,2.1,5.4,3.8,7.8C100.2,127.8,100.5,128.2,100.9,128.7z M122,199.4c1.3-0.7,2.6-1.4,3.8-2.1
	c2-1.1,3.7-2.5,5.3-4.2c2-2.3,3.6-4.8,5-7.4c1.8-3.5,3.3-7.1,4.6-10.8c1-2.8,1.9-5.7,2.8-8.6c0.1-0.3,0.1-0.7,0-0.8
	c-0.3-0.4-0.7-0.7-1.1-1.1c-0.3-0.4-0.6-0.8-1-1.3c-0.1,0.5-0.3,0.8-0.3,1.2c-0.9,3.7-1.8,7.4-2.8,11.1c-1.2,4.4-2.8,8.6-5.2,12.6
	c-2.1,3.5-4.9,6.5-8.6,8.4c-0.8,0.4-1.6,0.7-2.5,1.1C122,198,122,198.7,122,199.4z M137.8,166.3c-0.8-0.9-1.6-1.7-2.2-2.5
	c-1.6-2.2-2.6-4.7-3-7.3c-0.4-2.2-0.5-4.5-0.8-6.7c-0.2-1.7-0.4-3.5-0.9-5.1c-0.1-0.2-0.2-0.4-0.2-0.5c-0.3,1.8-0.6,3.6-0.5,5.5
	c0.1,1.2,0.2,2.4,0.3,3.6c0.2,2.1,0.5,4.2,1.2,6.2c1,3.1,2.4,5.9,4.5,8.3c0.3,0.4,0.6,0.7,1,1.2C137.4,167.9,137.6,167,137.8,166.3z
	 M132.2,116.4c-0.1,0-0.1-0.1-0.2-0.1c-0.4,0.5-0.9,1.1-1.2,1.7c-0.7,1.2-1.3,2.5-1.8,3.8c-0.8,2-1.6,4-2.4,5.9
	c-0.9,2.2-2.3,4-4.2,5.4c-0.2,0.1-0.4,0.3-0.4,0.5c0,0.8-0.1,1.5,0.1,2.4c1.9-1.2,4.2-3.6,4.7-5c-0.2-0.3-0.5-0.6-0.7-1
	c-0.1-0.2-0.1-0.5,0.1-0.6c0.1-0.1,0.5-0.1,0.7,0c0.3,0.1,0.5,0.4,0.8,0.7C129.9,125.7,131.1,121.1,132.2,116.4z M136.6,171.2
	c0.4-0.6,0.1-0.9-0.2-1.2c-2-1.8-3.5-4-4.7-6.5c-1.3-2.7-2.1-5.6-2.5-8.6c-0.5-3.1-0.7-6.2-0.3-9.4c0.1-0.7,0.2-1.3,0.3-2.2
	c-0.6,0.5-0.8,1-1,1.5c-0.9,2.1-1.2,4.2-1,6.4c0.3,3.7,1.2,7.3,2.7,10.8c1,2.4,2.3,4.6,4,6.6C134.6,169.7,135.4,170.6,136.6,171.2z
	 M122,139.5c0.8-0.6,1.5-1.1,2.2-1.6c2.6-1.9,4.7-4.2,6.4-6.9c1.4-2.3,2.6-4.6,3.2-7.2c0.4-2,0.6-3.9,0.1-5.9c0-0.2-0.2-0.4-0.2-0.5
	c-0.7,2.6-1.4,5.1-2,7.6c0.3,0.1,0.6,0.2,0.9,0.3c0.3,0.1,0.5,0.3,0.4,0.6c-0.1,0.2-0.4,0.3-0.6,0.3c-0.4,0-0.8-0.1-1.1-0.1
	c-0.1,0.3-0.2,0.5-0.3,0.8c-1.6,4.4-4.2,8-8.1,10.6C122,138,121.8,138.5,122,139.5z M147.2,150.5c-0.3,0.2-0.6,0.4-0.8,0.7
	c-0.6,0.7-1.2,1.4-1.6,2.2c-1.6,2.7-2.4,5.8-3.2,8.7c0.5,0.4,0.9,0.6,1.3,0.9c0.4,0.4,0.7,0.8,1.2,1.3
	C145.4,159.7,146.3,155.2,147.2,150.5z"/>
<path class="st88" d="M113.6,308.5c0.2-1,0.4-2,0.6-2.9c1.9-7.9,4.1-15.7,6.8-23.3c1.3-3.6,2.7-7.2,4.1-10.8
	c0.2-0.5,0.4-0.9,0.6-1.3c0.7-1.1,2-1.2,2.8-0.2c0.3,0.4,0.6,0.9,0.8,1.4c0.4,1.6,0.9,3.2,1.2,4.9c1.1,7.2,2.2,14.4,3.3,21.6
	c0.1,0.7,0.2,1.4,0.3,2.1c0.4-0.1,0.6-0.4,0.7-0.6c2.6-3.5,5.2-6.9,7.9-10.4c0.9-1.2,1.8-2.4,2.8-3.7c0.2-0.3,0.5-0.6,0.8-0.9
	c0.6-0.6,1.3-0.8,2.1-0.6c0.8,0.3,1.1,1,1.1,1.8c0,0.9,0,1.9-0.1,2.8c-0.5,5.5-1.6,10.9-2.7,16.4c-0.1,0.3-0.1,0.5-0.2,1
	c0.4-0.4,0.7-0.6,0.9-0.8c3.8-3.7,7.6-7.3,11.5-11c0.9-0.8,1.8-1.6,2.7-2.3c0.3-0.2,0.7-0.5,1-0.6c1.4-0.6,2.7,0,3,1.5
	c0.1,0.6,0.2,1.2,0.1,1.8c-0.1,1.9-0.3,3.8-0.5,5.7c-0.6,4.4-1.2,8.7-2.4,13c-1.2,4.7-3,9.3-5.3,13.5c-1.6,3-3.8,5.6-6.3,7.8
	c-0.2,0.1-0.3,0.3-0.5,0.4c0,0-0.1,0.1-0.1,0.2c1.2,1.1,2.3,2.1,3.5,3.2c3.1,2.9,5.9,6,8.7,9.2c1.4,1.7,2.8,3.5,3.8,5.5
	c0.4,0.7,0.7,1.6,0.8,2.4c0.2,1.6-0.6,2.8-2.3,3.1c-0.5,0.1-1.1,0.1-1.6,0.1c-7-0.8-13.9-2.1-20.8-4c-2.7-0.7-5.3-1.7-7.8-3
	c-2.9-1.5-5.4-3.6-7.1-6.5c0,0-0.1-0.1-0.1-0.1c-0.8,0.5-1.5,1-2.3,1.4c-3,1.8-6.3,2.7-9.7,3.3c-3.2,0.6-6.4,0.8-9.6,0.9
	c-3,0.2-5.9,0.4-8.9,0.5c-3.7,0.1-7.5,0.2-11.2,0.2c-0.4,0-0.8-0.1-1.2-0.2c-1-0.3-1.7-1.2-1.5-2.3c0.1-0.7,0.3-1.4,0.7-2
	c0.4-0.7,1-1.4,1.6-2c2.2-2.1,4.5-4.2,6.7-6.3c0.2-0.2,0.4-0.4,0.8-0.7c-0.6-0.1-1.1-0.3-1.6-0.4c-5.3-1.1-10.1-3.4-14.8-6.1
	c-1.1-0.6-2.2-1.3-3.2-2.1c-0.4-0.3-0.9-0.7-1.2-1.2c-0.8-1.1-0.2-2.5,1.2-2.7c0.4-0.1,0.9-0.1,1.3-0.1c2,0.1,3.9,0.2,5.9,0.2
	c4.2,0,8.3-0.1,12.5-0.1c1.2,0,2.4,0,3.7-0.1c2.5-0.1,4.9-0.3,7.4-0.4c0.3,0,0.5-0.1,0.8-0.1c-0.7-1.8-1.5-3.5-2.2-5.2
	c-2.4-5.9-4.3-12.1-6.1-18.2c-0.9-3.2-1.8-6.3-2.6-9.5c-0.3-1.2-0.4-2.5-0.7-3.7c0-0.1,0-0.2,0-0.4c0-0.6,0.2-1,0.7-1.2
	c0.5-0.2,1-0.1,1.3,0.3c0.2,0.2,0.4,0.5,0.5,0.8c0.8,1.7,1.9,3.3,3.1,4.8c4,5,8.3,9.7,12.8,14.2C112.4,307.4,113,307.9,113.6,308.5z
	 M130.7,337.8c1.3,0.6,2.6,0.9,4,0.6c3.5-0.6,6.9-1.6,9.9-3.5c3.9-2.5,7.1-5.7,9.4-9.7c2-3.5,3.5-7.3,4.5-11.2
	c1.3-4.7,2.1-9.5,2.9-14.3c0.1-0.7,0.2-1.4,0.3-2.1c-2.7,5.5-5.2,11.1-8.4,16.5c0.3,0.2,0.5,0.4,0.7,0.6c0.3,0.3,0.4,0.6,0.1,1
	c-0.2,0.3-0.6,0.4-1.1,0.2c-0.2-0.1-0.4-0.2-0.7-0.3c-3.6,5.8-7.8,11-13.5,15c0.1,0.5,0.3,0.9-0.2,1.2c-0.5,0.4-0.9,0.1-1.2-0.1
	c-2.4,1.2-4.7,2.4-7,3.6c0,0.6,0,1.3,0,2C130.7,337.4,130.7,337.6,130.7,337.8z M150.7,314.3c-0.4-0.4-0.8-0.8-1.1-1.2
	c-0.3-0.3-0.4-0.7-0.1-1.1c0.3-0.3,0.7-0.3,1.1-0.1c0.3,0.2,0.6,0.4,1,0.7c3-5.1,5.5-10.4,8-15.6c-0.2,0.1-0.4,0.2-0.5,0.3
	c-6.6,6.6-13.2,13.2-20.2,19.5c-3.8,3.5-6.9,7.6-9.7,11.9c-0.1,0.2-0.3,0.5-0.2,0.7c0.4,1.2,0.8,2.3,1.2,3.6c2.1-1,4-2.1,6-3.4
	c-0.3-0.7-0.5-1.3-0.8-1.9c-0.1-0.4-0.1-0.7,0.3-1c0.4-0.2,0.7-0.1,1,0.2c0.2,0.2,0.4,0.5,0.6,0.8c0.2,0.2,0.3,0.4,0.5,0.7
	C143.4,324.7,147.3,319.8,150.7,314.3z M127.3,325.6c0.2-0.3,0.3-0.4,0.4-0.7c0.6-1.5,1.4-2.9,1.8-4.4c1.2-3.8,1.4-7.7,1.2-11.7
	c-0.2-4.1-0.7-8.1-1.3-12.1c-0.7-5-1.4-9.9-2.1-14.9c-0.1-0.9-0.2-1.7-0.4-2.6c-0.1,0-0.1,0-0.2,0c-0.7,8.3-1.5,16.6-2.2,25
	c0.5,0.2,1.1,0.4,1.1,1.1c-0.1,0.7-0.7,0.7-1.2,0.8c0,0.1-0.1,0.1-0.1,0.2c-0.5,4.1-0.9,8.2-1.4,12.3c-0.1,0.4,0.1,0.7,0.3,1
	c1.1,1.5,2.1,3,3.1,4.5C126.7,324.6,126.9,325.1,127.3,325.6z M125.7,341.2c1.1-0.8,1.7-1.9,1.9-3.2c0.3-1.9-0.1-3.8-0.6-5.6
	c-1-3.2-2.7-5.9-4.7-8.6c-2.7-3.7-5.8-7.1-8.9-10.4c-3.3-3.5-6.6-6.9-9.9-10.3c0-0.1-0.1-0.1-0.4-0.2c4.3,8.2,8.4,16.3,13.2,24.1
	c0.4-0.1,0.8-0.2,1.1-0.3c0.4,0,0.7,0.1,0.9,0.5c0.1,0.4,0,0.7-0.3,0.9c-0.2,0.2-0.4,0.3-0.7,0.5C119.8,333,122.7,337.1,125.7,341.2
	z M130.1,340.5c-0.9,1-0.9,2-0.3,2.9c0.3,0.6,0.7,1.2,1.2,1.7c1.3,1.5,2.9,2.6,4.6,3.5c2.1,1.1,4.2,2,6.5,2.5
	c4.1,1,8.1,1.9,12.2,2.8c2.4,0.5,4.8,0.9,7.2,1.3c0-0.1,0-0.1,0.1-0.2c-3.9-2-7.8-4-11.7-6c-0.4,0.4-0.7,0.9-1.3,0.6
	c-0.7-0.3-0.3-1-0.3-1.4c-0.1-0.1-0.2-0.1-0.3-0.2c-3.7-2.1-7.4-4.2-11.1-6.3c-0.3-0.2-0.6-0.2-0.9-0.2c-0.8,0-1.6,0.1-2.5,0.1
	C132.1,341.6,131.1,341.1,130.1,340.5z M124.7,279.3C124.7,279.3,124.7,279.3,124.7,279.3c-0.2,0.2-0.3,0.4-0.3,0.7
	c-1.8,5.6-3.7,11.1-5.4,16.7c-1.3,4.3-2.5,8.6-3.7,12.8c-0.1,0.5-0.1,0.8,0.3,1.1c1.6,1.8,3.3,3.6,4.9,5.5c0.1,0.1,0.2,0.2,0.5,0.4
	c0.4-3.7,0.8-7.3,1.2-10.9c-0.4-0.2-0.7-0.3-1-0.5c-0.3-0.2-0.5-0.4-0.4-0.8c0.1-0.4,0.4-0.5,0.8-0.5c0.3,0,0.5,0,0.9,0
	C123.1,295.6,123.9,287.4,124.7,279.3z M163,353.9c0.1,0,0.1-0.1,0.2-0.1c-4.1-6.4-9.4-11.8-14.9-17c-2.9,2.1-6.1,3.4-9.7,4.3
	c3.6,2,7.1,4,10.7,5.7c0.2-0.2,0.3-0.4,0.5-0.6c0.1-0.2,0.3-0.3,0.4-0.5c0.4-0.4,0.9-0.5,1.2-0.2c0.3,0.3,0.4,0.6,0.1,1.2
	c-0.2,0.3-0.4,0.6-0.6,1C154.9,349.7,158.9,351.8,163,353.9z M101.6,344.3c-4.2,1.3-8.2,2.6-12.3,3.9c1.8,0.1,3.6,0.1,5.4,0
	c2.6-0.1,5.2-0.3,7.8-0.4c4-0.2,8.1-0.2,12.1-0.8c2.6-0.4,5.2-0.9,7.6-1.9c0.2-0.1,0.4-0.2,0.6-0.3c-1-0.4-2-0.7-2.9-1.1
	c-1.7-0.8-3.2-1.9-4.5-3.2c-0.4-0.4-0.7-0.4-1.2-0.3c-2.5,0.8-5,1.7-7.6,2.5c-1,0.3-2.1,0.7-3.2,1c0.2,0.5,0.5,0.9,0.7,1.4
	c0.1,0.3,0,0.7-0.2,0.8c-0.2,0.1-0.6,0.1-0.8,0c-0.2-0.1-0.4-0.3-0.5-0.5C102.1,345.1,101.9,344.7,101.6,344.3z M100.8,303.1
	c0.1,0.2,0.1,0.5,0.2,0.7c1.6,4.7,3.2,9.4,4.9,14c1.7,4.4,3.6,8.8,6,12.8c1.5,2.5,3.1,4.9,5,7c1.3,1.4,2.7,2.6,4.5,3.4
	c0.5,0.2,1,0.4,1.5,0.6c0-0.1,0.1-0.1,0.1-0.2c-3.1-3.7-5.5-7.8-8-11.8c-0.3,0-0.5,0.1-0.6,0.1c-0.2,0-0.4,0-0.6,0
	c-0.6-0.1-0.7-0.7-0.3-1.1c0.2-0.2,0.4-0.3,0.7-0.5C109.3,319.9,105.1,311.4,100.8,303.1z M139.5,304.5c-0.2,0.4-0.3,0.6-0.4,0.9
	c-1.6,3.8-3.3,7.7-4.9,11.5c-0.2,0.4-0.2,0.8-0.3,1.2c0.1,0.1,0.2,0.1,0.3,0.2c0.1-0.1,0.1-0.3,0.2-0.4c2.4-2.5,4.8-5,7.2-7.5
	c1.1-1.1,1.4-1.1,1.6-3.1c0.4-4.6,1.2-9.2,2.1-13.8c0.2-0.8,0.3-1.7,0.4-2.5c-0.1,0-0.1,0-0.2-0.1c-1.9,3.9-3.4,8-5.2,11.9
	c0.3,0.2,0.5,0.3,0.7,0.4c0.4,0.3,0.6,0.6,0.4,1c-0.2,0.4-0.6,0.5-1.1,0.3C139.9,304.7,139.7,304.6,139.5,304.5z M82.5,330.8
	c0.3,0.2,0.5,0.3,0.7,0.4c2.3,1.1,4.7,2.1,7.2,2.7c6.9,1.8,13.8,2.8,20.9,2.7c0.1,0,0.2-0.1,0.3-0.1c-0.6-0.9-1.3-1.8-1.8-2.7
	c-0.3-0.5-0.6-0.6-1.1-0.6c-3.5-0.1-7.1-0.3-10.6-0.5c-0.9,0-1.9-0.1-2.9-0.2c-0.1,0.5-0.1,1-0.7,1.1c-0.9,0-0.8-0.7-1-1.2
	C89.8,331.8,86.2,331.3,82.5,330.8z M80.4,328.6c4.4,0.9,8.7,1.5,13.1,1.9c0.1-0.3,0.1-0.6,0.2-0.9c0.1-0.4,0.3-0.8,0.8-0.8
	c0.5,0,0.7,0.3,0.8,0.8c0.1,0.4,0.1,0.7,0.2,1.2c4.3,0.5,8.6,0.7,13,0.8c-0.8-1.6-1.6-3-2.4-4.6c-4.1,1-8.4,1.2-12.6,1.3
	C89,328.4,84.8,328.5,80.4,328.6z M100.5,342.7c-0.1-0.3-0.1-0.5-0.2-0.7c-0.1-0.3-0.1-0.6,0.2-0.8c0.3-0.2,0.7-0.1,0.9,0.1
	c0.3,0.3,0.5,0.6,0.7,0.8c2.7-0.8,5.2-1.6,7.8-2.4c-1.1-0.1-2.2-0.1-3.2-0.1c-3.2,0-6.3-0.5-9.5-1c-0.6-0.1-1.1,0.1-1.5,0.5
	c-0.5,0.5-1,1-1.5,1.5c-1.8,1.8-3.5,3.5-5.3,5.3c-0.2,0.2-0.3,0.3-0.4,0.5c0,0,0.1,0.1,0.1,0.1C92.5,345.3,96.4,344.1,100.5,342.7z
	 M138.4,302.1c1.2-2.8,2.4-5.6,3.6-8.3c-0.3,0.1-0.5,0.3-0.6,0.5c-0.6,0.8-1.2,1.6-1.9,2.4c-1.6,1.8-3.1,3.7-4.7,5.5
	c-0.4,0.5-0.6,0.9-0.6,1.5c0.2,2.1,0.2,4.2,0.4,6.3c0,0.1,0,0.2,0.1,0.4c1-2.3,1.9-4.5,2.9-6.6c-0.6-0.7-0.7-0.9-0.5-1.2
	C137.4,302,137.9,302.1,138.4,302.1z"/>
<path class="st91" d="M208.6,305.8c-1.2-1.1-2.3-2-3.4-3c-0.4-0.4-0.7-0.8-0.5-1.5c0.2-0.5,0.8-0.9,1.5-0.8c0.8,0.1,1.7,0.3,2.5,0.4
	c0.3,0.1,0.6,0.1,1.1,0.2c1-3.9,1.9-7.6,2.9-11.5c-0.8-0.7-1.7-1.4-2.5-2.2c-0.5-0.4-1-0.8-1.5-1.3c-0.4-0.4-0.7-0.9-0.5-1.5
	c0.2-0.6,0.7-0.9,1.3-0.9c0.9-0.1,1.8,0,2.7,0c0.8,0.1,1.5,0.2,2.2,0.3c1.2-2.8,2.3-5.6,3.6-8.5c-0.3,0.2-0.4,0.4-0.6,0.6
	c-1,0.8-2,1.7-3.1,2.5c-0.6,0.5-1.4,0.6-2.2,0.3c-1.2-0.4-1.8-1.6-1.3-2.9c0.2-0.7,0.6-1.4,1.1-2c0.7-0.9,1.5-1.7,2.2-2.6
	c0.2-0.2,0.4-0.4,0.6-0.7c-0.4-0.1-0.7-0.2-1-0.4c-0.8-0.3-1.6-0.6-2.3-1c-0.9-0.5-1.5-1.3-1.7-2.3c-0.4-1.3,0-2.4,1.2-3
	c0.9-0.5,1.9-0.7,2.9-1c0.6-0.2,1.2-0.3,1.9-0.4c-0.1-0.2-0.1-0.3-0.2-0.4c-1.6-2.1-2.7-4.4-3.7-6.7c-0.3-0.8-0.6-1.6-0.8-2.4
	c-0.2-0.7-0.2-1.5,0.1-2.2c0.4-1.1,1.3-1.8,2.5-1.8c0.9,0,1.7,0.3,2.5,0.6c2,0.9,3.9,2.1,5.7,3.5c0.8,0.6,1.6,1.2,2.5,1.9
	c0.2-0.6,0.3-1.2,0.4-1.7c0.3-1.1,0.9-2.1,1.7-3c1.3-1.5,3.8-1.7,5.1,0.6c0.4,0.8,0.7,1.6,1,2.5c0.1,0.3,0.2,0.7,0.3,1.2
	c0.3-0.3,0.4-0.5,0.6-0.7c0.9-1,1.8-2.1,2.8-3c0.5-0.5,1.2-0.8,1.8-1c1.2-0.4,2.4,0.1,3,1.3c0.3,0.5,0.4,1.2,0.4,1.8
	c0.1,1.5-0.1,2.9-0.5,4.4c-0.1,0.2-0.1,0.5-0.2,0.9c0.4-0.2,0.7-0.3,1-0.4c1.1-0.4,2.3-0.9,3.4-1.3c0.4-0.1,1-0.1,1.4-0.1
	c1.7,0.1,2.8,1.6,2.5,3.3c-0.1,0.7-0.4,1.4-0.7,1.9c-0.8,1.5-2.1,2.6-3.4,3.6c-0.5,0.4-0.9,0.8-1.5,1.2c0.3,0.1,0.5,0.1,0.7,0.2
	c1.1,0.3,2.2,0.5,3.3,0.9c1,0.3,1.8,1,2.3,2c0.9,1.5,0.6,3.2-0.8,4.2c-0.7,0.5-1.5,0.9-2.4,1.2c-1.3,0.4-2.6,0.5-3.9,0.8
	c-0.3,0.1-0.7,0.1-1,0.2c1,2.2,1.9,4.3,2.9,6.5c0.6-0.3,1.2-0.5,1.8-0.8c0.6-0.2,1.1-0.5,1.7-0.7c1.1-0.3,1.9,0.5,1.6,1.6
	c-0.1,0.4-0.3,0.8-0.5,1.2c-0.8,1.5-1.6,3-2.4,4.5c-0.2,0.3-0.3,0.6-0.2,0.9c1.2,5,1.4,10,1.5,15.1c0,0.2,0,0.4,0,0.6
	c0,0.1,0,0.1,0.1,0.3c0.6,0.1,1.2,0.1,1.8,0.2c0.8,0.1,1.7,0.2,2.5,0.4c1.3,0.3,1.7,1.4,1,2.5c-0.3,0.4-0.7,0.9-1.1,1.2
	c-1.1,0.8-2.3,1.5-3.5,2.2c-0.4,0.2-0.7,0.4-1,0.6c-0.8,8.8-1.6,17.4-2.4,26.1c1.1,0.3,2.3,0.7,3.4,1c0.3,0.1,0.5,0.1,0.8,0.3
	c0.9,0.5,1,1.4,0.1,2c-0.2,0.2-0.5,0.3-0.8,0.4c-1.2,0.5-2.4,1-3.6,1.5c-0.5,0.2-0.8,0.5-0.8,1c-0.7,5-1.9,9.8-3.4,14.6
	c-0.5,1.5-1.1,3-1.9,4.3c-1.2,2.1-3,3.3-5.4,3.6c-5.6,0.7-10.7-0.4-15.4-3.5c-1.9-1.2-3.2-3-4.2-5c-1.2-2.3-2.2-4.7-2.9-7.2
	c-0.8-2.5-1.4-5.1-2.1-7.6c-0.1-0.3-0.2-0.6-0.2-0.9c-0.8-0.1-1.6-0.2-2.4-0.3c-0.4-0.1-0.8-0.2-1.2-0.4c-1.1-0.5-1.3-1.5-0.4-2.3
	c0.7-0.8,1.5-1.5,2.4-2.1c0.5-0.4,0.6-0.7,0.5-1.4c-0.9-6.1-1.3-12.2-0.9-18.4c0.2-3.8,0.7-7.7,1.5-11.4
	C208.5,306.2,208.6,306,208.6,305.8z M223.8,363c-1.6-5.3-2.5-10.5-3.3-15.7c-0.8-5.2-1.4-10.5-1.8-15.9c-1.1,0.1-2.1,0.2-3.2,0.3
	c-0.4,0-0.8,0-1.2-0.1c-0.8-0.3-1.1-1-0.7-1.8c0.2-0.4,0.4-0.7,0.7-1c0.8-0.8,1.7-1.6,2.5-2.4c0.5-0.4,1.2-0.8,1.5-1.3
	c0.3-0.6,0-1.4,0-2.1c0-3.9,0-7.8,0.1-11.7c0.2-5.2,0.8-10.4,1.5-15.5c0.9-6.2,2-12.3,3.5-18.4c0.7-2.9,1.6-5.8,2.3-8.7
	c0.1-0.4,0.2-0.8,0.3-1.3c-0.4,0.2-0.6,0.5-0.7,0.7c-0.9,1.6-2,3.2-2.8,4.9c-5.6,11.2-9.5,23-11.6,35.3c-0.7,3.8-1.1,7.6-1.2,11.5
	c-0.1,5.4,0.3,10.8,1.1,16.2c0.8,5.3,1.9,10.5,3.7,15.6c0.8,2.2,1.6,4.3,2.8,6.3C218.8,360.5,221,362,223.8,363z M229.5,306.8
	c0.3,0.2,0.6,0.3,0.9,0.5c0.8,0.4,1.6,0.8,2.3,1.3c1,0.7,1,1.7,0.1,2.5c-0.2,0.2-0.5,0.4-0.8,0.6c-0.6,0.3-1.2,0.7-1.8,1
	c-0.7,0.3-0.9,0.7-0.9,1.4c0,2.4-0.1,4.8-0.1,7.2c-0.1,9.5,0.1,18.9,0.5,28.4c0.1,3.4,0.2,6.8,0.3,10.2c0,0.7,0,1.4,0.4,2
	c0.1,0.1,0,0.4,0,0.6c0,0.6-0.1,1.3-0.1,1.9c1.1,0,2.1,0.2,3-0.2c0.1-1.3,0.2-2.6,0.2-3.9c0.3-4.4,0.7-8.7,1-13.1
	c0.2-3.3,0.4-6.6,0.5-9.9c0.2-4.8,0.5-9.6,0.5-14.5c0.1-5.7,0.1-11.5,0.1-17.2c0-4-0.1-7.9-0.4-11.9c-0.4-4.9-1-9.7-2.1-14.5
	c-0.8-3.4-1.8-6.8-3.1-10.1c-0.1-0.2-0.2-0.5-0.4-0.7C230.3,281.3,229.8,294,229.5,306.8z M232.2,268.4c0,0-0.1,0.1-0.1,0.1
	c0.1,0.1,0.1,0.3,0.2,0.4c0.8,2.3,1.7,4.5,2.4,6.8c2.4,8.2,3.3,16.7,3.6,25.2c0.1,2.9,0.2,5.8,0.1,8.7c-0.1,5.8-0.2,11.5-0.3,17.3
	c0,2.1-0.2,4.3-0.3,6.4c0,0.3,0.1,0.7,0.2,1c0.6,1.3,1.4,2.6,2,3.9c0.3,0.7,0.6,1.5,0.7,2.3c0.1,1.4-0.8,2-2,1.4
	c-0.4-0.2-0.8-0.4-1.2-0.6c-0.6,7.3-1.3,14.6-1.9,22c0.6-0.4,1-0.9,1.2-1.5c0.5-1.1,1.1-2.1,1.5-3.3c1.2-3.5,2.1-7.1,2.8-10.7
	c0.9-4.8,1.5-9.6,2-14.4c0.7-6.8,1.4-13.6,1.8-20.4c0.3-5,0.5-10.1,0.1-15.1c-0.3-4.2-0.9-8.3-2.2-12.3c-1.3-4-2.9-7.8-5.1-11.3
	C236.1,272.1,234.1,270.2,232.2,268.4z M228.1,364.2c-0.1-0.6-0.1-1.1-0.2-1.6c-0.2-2.9-0.4-5.8-0.5-8.7c-0.2-4.4-0.4-8.8-0.5-13.2
	c-0.1-4.6-0.2-9.2-0.3-13.8c-0.1-7.2,0.1-14.5,0.4-21.7c0.1-2.4,0.2-4.7,0.3-7.1c0.2-4.2,0.4-8.4,0.4-12.5c0.1-4.8,0.1-9.7,0.1-14.5
	c0-0.3,0-0.6,0-1c-0.3,0.4-0.4,0.8-0.5,1.3c-1,3.7-1.9,7.5-2.6,11.3c-1.2,6.4-2.3,12.9-2.8,19.4c-0.3,4.4-0.7,8.8-0.8,13.2
	c-0.2,6.2-0.1,12.5,0.5,18.7c0.3,4,0.7,7.9,1.2,11.8c0.7,5.5,1.6,11,3,16.4C226.1,364,226.1,364,228.1,364.2z M238.8,271
	c0.1-1,0.3-1.8,0.3-2.7c-0.2-3.6-1.8-6.3-5.2-7.8c-2.7-1.2-5.6-1.4-8.5-0.9c-2.6,0.5-4.6,1.7-6,4.1c-1.5,2.6-1.5,5.2-0.4,7.8
	c0.1,0.3,0.3,0.6,0.5,0.9c0.2-0.4,0.4-0.7,0.5-0.9c1.1-1.8,2.2-3.6,3.3-5.4c0.6-0.8,1.3-1.6,2.1-2.3c1-0.8,2.1-1.1,3.4-0.7
	c0.8,0.3,1.7,0.6,2.4,1.1c1.6,0.9,3,2.2,4.3,3.5C236.7,268.7,237.7,269.8,238.8,271z M218.2,262.1c1.3-2.1,3.2-3.4,5.4-4.1
	c-1.5-2-8.1-6.2-10-6.4c-0.3,0.7-0.4,1,0,2.1C214.7,256.6,216.1,259.4,218.2,262.1z M241.5,268.6c-0.1,0.1-0.2,0.2-0.2,0.2
	c-0.2,1.3-0.5,2.6-1.2,3.8c-0.2,0.4,0.1,0.9,0.6,0.8c1.6-0.2,3.2-0.5,4.8-0.8c0.6-0.1,1.2-0.4,1.7-0.7c0.8-0.4,0.8-1,0.3-1.7
	c-0.5-0.6-1.2-0.9-1.9-1.1C244.3,269,242.9,268.8,241.5,268.6z M239.2,261.7c0.6,1.2,1.2,2.4,1.8,3.6c0.1,0,0.2-0.1,0.3-0.1
	c1.1-0.9,2.2-1.8,3.2-2.8c0.6-0.6,1.1-1.3,1.7-1.9c0.2-0.3,0.4-0.7,0.5-1.1c0.2-0.6-0.1-0.8-0.6-0.7c-0.4,0.1-0.7,0.1-1,0.3
	c-1.4,0.7-2.8,1.4-4.3,2.1C240.1,261.2,239.7,261.5,239.2,261.7z M237.5,260C237.5,260,237.6,260,237.5,260c0.6-2.2,1.1-4.2,1.2-6.4
	c0-0.5-0.1-0.9-0.1-1.4c-1.1,0.4-3.5,3-5.3,5.8C234.8,258.6,236.1,259.3,237.5,260z M230.7,257.3c-0.4-2.1-1.4-5-2.2-5.8
	c-1.8,1.5-1.8,3.7-2.2,5.8C227.9,257.3,229.3,257.3,230.7,257.3z M217,264.5c-1.1,0.3-2.1,0.5-3.1,0.7c-0.6,0.1-1.1,0.3-1.7,0.5
	c-0.7,0.3-0.9,0.8-0.5,1.4c0.3,0.4,0.7,0.8,1.2,1c0.9,0.4,1.9,0.6,2.9,0.9c0.2,0.1,0.4,0,0.6,0C216.3,267.5,216.5,266,217,264.5z
	 M217.1,271.3c-1.6,1.5-3.2,3-4.3,4.9c-0.1,0.2-0.2,0.4-0.2,0.6c0,0.4,0.2,0.6,0.6,0.5c0.3-0.1,0.6-0.3,0.8-0.5
	c1.3-1.2,2.7-2.4,4-3.6C217.7,272.6,217.4,272,217.1,271.3z M248.1,309.6c1.1-0.8,2-1.4,3-2.1c0-0.1,0-0.1,0-0.2
	c-1-0.1-1.9-0.3-3-0.4C248.1,307.8,248.1,308.7,248.1,309.6z M211.1,285.8c0,0.1-0.1,0.1-0.1,0.2c0.7,0.7,1.5,1.3,2.3,2.1
	c0.2-0.7,0.4-1.3,0.6-1.9C212.9,286,212,285.9,211.1,285.8z M218.5,327.7c-0.8,0.7-1.4,1.3-2,1.8c0,0.1,0.1,0.1,0.1,0.2
	c0.6,0,1.3-0.1,2-0.2C218.6,329,218.6,328.5,218.5,327.7z M247.2,340.5c-0.7-0.2-1.3-0.4-1.9-0.6c-0.1,0.6-0.1,1-0.2,1.6
	C245.8,341.1,246.4,340.8,247.2,340.5z M208.7,340.8c-0.1-0.6-0.2-1.1-0.3-1.7c-0.5,0.5-0.9,0.9-1.4,1.4
	C207.5,340.6,208,340.7,208.7,340.8z M229.5,310.7c0.5-0.3,0.9-0.5,1.5-0.8c-0.6-0.3-1-0.5-1.5-0.7
	C229.5,309.7,229.5,310.1,229.5,310.7z M245.7,285.4c0.1,0,0.1,0,0.2,0c0.2-0.5,0.4-1,0.7-1.6c0,0-0.1-0.1-0.1-0.1
	c-0.4,0.1-0.7,0.3-1.1,0.4C245.4,284.6,245.6,285,245.7,285.4z M237.6,338.3c-0.1,0.5-0.1,0.8-0.1,1.1c0.3,0.1,0.5,0.3,0.8,0.4
	c0,0,0.1-0.1,0.1-0.1C238.1,339.3,237.9,338.9,237.6,338.3z M208.9,303.8c0.1,0,0.1-0.1,0.2-0.1c0-0.2,0.1-0.4,0.1-0.6
	c-0.3,0-0.6,0-1.1-0.1C208.5,303.4,208.7,303.6,208.9,303.8z"/>
<path class="st83" d="M326.2,278.7c0.1-0.9,0.2-1.7,0.2-2.5c0.1-1.1,0.1-2.3,0.2-3.4c0-0.2,0-0.4,0.1-0.5c0.2-0.5,0.6-0.8,1.1-0.8
	c0.5,0,0.9,0.4,0.9,1c0,1.3,0,2.7,0,4c0,0.4,0,0.8,0,1.4c0.3-0.3,0.6-0.4,0.8-0.6c2.5-2.1,5.3-3.8,8.5-4.7c7.6-2.1,15.1,2.3,18,7.9
	c2.3,4.3,3.1,8.8,2.4,13.6c-0.8,5.9-2.6,11.5-4.9,16.9c-0.2,0.4-0.3,0.8-0.5,1.3c0.3,0,0.5,0,0.7-0.1c1.5-0.4,3-0.8,4.5-1.2
	c0.3-0.1,0.7-0.1,1-0.1c0.4,0,0.7,0.3,0.8,0.7c0.1,0.4-0.1,0.7-0.4,0.9c-0.3,0.2-0.6,0.3-0.8,0.3c-2,0.6-4,1.1-6.1,1.7
	c0.1,0.2,0.2,0.4,0.3,0.6c1,1.5,1.9,3.1,2.9,4.6c0.2,0.3,0.4,0.7,0.5,1.1c0.1,0.5-0.1,1-0.6,1.1c-0.4,0.1-0.7,0-1.1-0.5
	c-1-1.5-2.1-3.1-3.1-4.7c-0.1-0.2-0.2-0.3-0.4-0.5c-5.2,9.8-10.6,19.5-17.5,28.2c0.2,0.1,0.4,0.2,0.5,0.3c1.6,0.5,3.2,1.1,4.9,1.6
	c0.3,0.1,0.7,0.3,1,0.5c0.4,0.2,0.5,0.6,0.4,1c-0.1,0.4-0.5,0.7-1,0.7c-0.3,0-0.7-0.1-1-0.2c-1.6-0.5-3.3-1-5-1.6c0.1,1,0.2,2,0.3,3
	c0.1,1.5,0.3,3,0.4,4.5c0.1,0.6-0.2,1-0.6,1.1c-0.5,0.1-0.9-0.2-1-0.8c-0.2-1-0.4-2.1-0.5-3.2c-0.2-1.1-0.3-2.2-0.4-3.4
	c0-0.2-0.1-0.4-0.1-0.6c-1.1,1.1-2.2,2.2-3.3,3.2c-1.1,1-2.3,2.1-3.5,3c-2.4,1.9-5.2,2.6-8.2,2.8c-2.2,0.1-4.2-0.4-6.1-1.2
	c-1.6-0.7-3.2-1.4-4.7-2.2c-1.7-0.9-3.3-2-4.6-3.4c-1.3-1.4-2.7-2.8-4-4.3c-0.7-0.8-1.3-1.8-2-2.6c-0.9-1.2-1.8-2.3-2.9-3.5
	c0,0.3,0,0.5,0,0.8c0,1.2,0.1,2.4,0.1,3.7c0,0.3,0,0.6-0.1,0.9c-0.1,0.6-0.6,0.9-1.1,0.9c-0.5,0-0.9-0.4-0.9-1
	c-0.1-0.7-0.1-1.5-0.2-2.2c-0.1-1.6-0.2-3.1-0.2-4.7c0-0.3-0.1-0.5-0.1-0.8c0-0.4-0.2-0.6-0.6-0.7c-2.1-0.7-4.3-1.3-6.4-2
	c-0.3-0.1-0.7-0.2-1-0.3c-0.4-0.1-0.7-0.4-0.6-0.8c0.1-0.5,0.5-0.7,0.9-0.7c0.5,0,1.1,0,1.5,0.1c1.4,0.3,2.8,0.7,4.2,1
	c0.2,0,0.4,0.1,0.7,0.2c-0.5-0.8-0.9-1.4-1.4-2.1c-4.3-6.6-7.5-13.8-9.6-21.4c-1-3.6-1.4-7.3-1.2-11.1c0.1-2.3,0.6-4.6,1.6-6.7
	c1.9-4.2,5.3-6.5,9.7-7.5c4.5-1,8.6,0.1,12.4,2.7c3,2,5.5,4.7,7.7,7.6c1.7,2.2,3.2,4.5,4.8,6.7c0.3,0.4,0.6,0.9,1,1.3
	c0.7-0.2,1.1-0.6,1.4-1.1c0.5-0.8,1-1.6,1.4-2.5c1.4-2.8,2.7-5.6,4-8.4c1.4-2.9,2.8-5.8,4.7-8.4c0.4-0.5,0.8-1,1.2-1.6
	c-0.3-0.1-0.5-0.2-0.7-0.3c-1.2-0.4-2.3-0.8-3.5-1.2c-0.2-0.1-0.5-0.2-0.7-0.3c-0.7-0.3-0.9-0.6-0.8-1.1c0.1-0.4,0.6-0.7,1.2-0.6
	c0.5,0.1,1,0.2,1.5,0.3C324,278.1,325,278.4,326.2,278.7z M338.1,299.1c0.4-0.2,0.7-0.4,1-0.5c0.9-0.4,1.8-0.7,2.8-0.7
	c1.6,0,3.6,1.8,2.5,4c-0.3,0.6-0.7,1.1-1,1.6c-0.1,0.2-0.3,0.4-0.5,0.7c2.8,2.6,4.7,5.7,6.2,9.3c0.2-0.3,0.3-0.5,0.4-0.6
	c2.3-4.8,4.2-9.8,5.3-15c0.7-3.1,1.2-6.2,0.8-9.4c-0.3-2.4-1-4.8-2.2-6.9c-0.1-0.2-0.2-0.3-0.4-0.5c-0.6,2-1.2,4-1.8,6
	c-0.1,0.3-0.2,0.7-0.4,0.9c-0.2,0.2-0.5,0.3-0.8,0.3c-0.4,0-0.6-0.3-0.6-0.7c0-0.2,0.1-0.4,0.1-0.6c0.5-1.9,1-3.9,1.4-5.8
	c0.1-0.3,0.1-0.5,0.2-0.8c-0.2,0-0.4,0.1-0.5,0.1c-1.1,0.4-2.2,0.8-3.3,1.1c-0.3,0.1-0.5,0.2-0.8,0.2c-0.4,0-0.7-0.1-0.9-0.5
	c-0.1-0.4,0.1-0.7,0.4-0.8c0.2-0.1,0.4-0.2,0.7-0.3c1.4-0.6,2.7-1.1,4.1-1.7c0-0.1-0.1-0.2-0.1-0.2c-0.1-0.1-0.1-0.1-0.2-0.2
	c-4.1-3.3-8.6-4.3-13.6-2.2c-2.6,1.1-4.9,2.7-6.9,4.7c-2.5,2.5-4.4,5.4-6,8.5c-1.9,3.8-3.7,7.6-5.5,11.5c0,0.1,0,0.2-0.1,0.4
	c1.3-0.7,2.6-1.3,3.9-1.9c-0.4-0.2-0.7-0.4-0.9-0.6c-0.3-0.2-0.5-0.5-0.4-0.9c0.2-0.4,0.5-0.5,0.9-0.5c0.3,0,0.6,0.2,0.9,0.3
	c0.2,0.1,0.5,0.2,0.8,0.3c0.1-0.4,0.3-0.7,0.4-1.1c0.1-0.3,0.2-0.6,0.3-1c0.2-0.5,0.5-0.8,1-0.6c0.4,0.1,0.6,0.5,0.5,1
	c0,0.2-0.1,0.5-0.1,0.7c-0.1,0.3-0.1,0.6-0.2,1c2-0.5,3.9-0.9,5.8-1.4c0.1-0.2,0.1-0.5,0.3-0.8c0.4-0.7,0.8-1.4,1.3-1.9
	c1-1.1,2.4-1.1,3.5-0.1c0.4,0.4,0.8,0.9,1.1,1.4C338,296.2,338.2,297.5,338.1,299.1z M331.5,342.5c0.3-0.4,0.5-0.5,0.7-0.7
	c0.9-1.2,1.9-2.4,2.7-3.7c4.6-6.7,8.7-13.8,12.6-21c0.5-1,0.6-1.8,0.1-2.9c-1.4-3-3-5.7-5.1-8.2c-0.2-0.3-0.5-0.6-0.7-0.9
	c-0.7,0.3-1.2,0.5-1.8,0.6c-0.5,0.1-1.1,0.1-1.6,0.2c0.4,1,0.7,1.9,1,2.9c0.3,1.1,0.4,2.3-0.1,3.4c-0.6,1.3-1.6,1.9-3,1.8
	c-0.8-0.1-1.4-0.5-1.9-1.1c-0.9-1-1.3-2.2-1.5-3.5c0-0.4-0.1-0.7-0.1-1.1c-0.7,0.3-1.3,0.6-1.9,0.8c-2,0.7-4,0-5.1-1.7
	c-1.2-1.8-0.7-3.7,1.1-4.7c1.1-0.6,2.2-0.9,3.4-1c0.4,0,0.8-0.1,1.2-0.1c-0.3-1.1-0.5-2-0.7-3c-3.9,0.5-11.6,3.8-14.5,5.9
	c0.1,0.1,0.2,0.1,0.3,0.2c3.5,2.6,6.2,5.9,8.4,9.6c0.8,1.4,1.5,2.8,2.2,4.2c0.2,0.3,0.3,0.5,0.7,0.6c1.5,0.4,3,0.9,4.5,1.4
	c0.2,0.1,0.4,0.1,0.6,0.2c0.4,0.2,0.6,0.5,0.5,1c-0.1,0.4-0.5,0.7-1,0.7c-0.4,0-0.7-0.1-1.1-0.2c-1-0.3-1.9-0.6-3.1-0.9
	c1.2,3.5,2,7,2.5,10.5C331.2,335.2,331.5,338.8,331.5,342.5z M317.5,353.4c2.3-0.3,4.1-1.1,5.8-2.4c2.2-1.7,4.1-3.8,6-5.8
	c0.3-0.3,0.4-0.7,0.3-1.1c-0.1-3.7-0.3-7.4-0.8-11.1c-0.5-3.7-1.3-7.3-2.5-10.9c-0.1-0.2-0.2-0.5-0.4-0.8c-0.2,0.5-0.4,0.8-0.6,1.1
	c-0.4,0.7-0.7,1.4-1.1,2.1c-0.2,0.4-0.5,0.7-1,0.5c-0.4-0.1-0.5-0.5-0.4-1c0.5-1.7,1-3.4,2.2-4.8c-1.3-3-2.9-5.8-4.9-8.3
	c-1.5-1.9-3.2-3.7-5.1-5.3c-0.4-0.3-0.7-0.5-1.1-0.1c-0.5,12.2,0.2,24.4,1.7,36.7c0.3-0.4,0.5-0.6,0.7-0.9c0.6-0.8,1.3-1.6,1.9-2.3
	c0.2-0.3,0.5-0.5,0.9-0.7c0.3-0.2,0.7-0.1,1,0.2c0.3,0.3,0.2,0.6,0,0.9c-0.3,0.4-0.6,0.7-0.8,1.1c-0.7,1-1.4,2-2.2,3
	c0.2,0.2,0.3,0.3,0.4,0.4c1,0.7,2,1.4,3.2,1.8c0.3,0.1,0.6,0.3,0.6,0.7c0,0.4-0.3,0.7-0.7,0.8c-0.4,0.1-0.9,0.1-1.2-0.1
	c-0.8-0.3-1.5-0.7-2.2-1.1c-0.3-0.2-0.6-0.3-1.1-0.6C316.6,348.1,317.1,350.7,317.5,353.4z M294.5,327.8c-0.3-0.1-0.5-0.1-0.7-0.2
	c-1.3-0.3-2.5-0.7-3.3-1.8c-1.5-1.7-1-3.8,1.1-4.6c1.2-0.5,2.3-0.3,3.4,0.3c0.6,0.3,1.1,0.6,1.7,0.9c-0.2-2.5,0.9-4.8,3-5.1
	c2-5.2,5-9.7,8.9-13.9c-1.3-0.4-2.5-0.9-3.8-1.3c-2.4-0.8-4.9-1.1-7.5-0.7c-2.3,0.4-4.4,1.1-6.4,2.4c-0.6,0.4-1,0.9-0.9,1.7
	c0.1,1.2,0,2.4,0,3.7c0,0.4-0.2,0.6-0.5,0.8c-0.4,0.1-0.7-0.1-0.9-0.4c-0.1-0.3-0.2-0.6-0.2-0.9c-0.1-0.5,0-1-0.1-1.6
	c0-0.2-0.1-0.4-0.2-0.6c-1.4,1.6-2.3,3.3-2.9,5.2c-0.8,2.4-1.1,4.8-1.5,7.3c-0.1,0.5,0,1,0.2,1.4c2.2,5.2,5.3,10,8.4,14.7
	c0.1,0.2,0.3,0.3,0.4,0.5c1.4,1.2,2.5,2.7,3.4,4.3c0.6,1.1,1.4,2.2,2.3,3.1c1.5,1.5,3,3,4.5,4.4c0.7,0.7,1.4,1.3,2.1,1.9
	c0.2,0.1,0.4,0.2,0.6,0.3c-0.5-1-1.1-1.8-1.7-2.6c-1.6-2.2-3-4.6-4.1-7.1c-1-2.1-1.7-4.3-1.9-6.7c-0.2,0-0.3,0-0.4,0.1
	c-2.7,0.9-4.4-1.7-3.8-3.6C294,329.2,294.2,328.5,294.5,327.8z M300.5,328.7c-0.2,0.8-0.4,1.6-0.8,2.4c-0.3,0.6-0.4,1.3-0.3,2
	c0.1,0.5,0.1,1,0.3,1.4c0.6,2.4,1.6,4.6,2.7,6.8c1.7,3.1,3.8,5.8,5.8,8.7c1.1,1.6,2.5,2.5,4.3,3c0.6,0.2,1.2,0.4,1.9,0.5
	c0.4,0.1,0.8,0.1,1.3,0.1c-0.3-1.1-0.5-2.1-0.7-3.1c-1.3-7.2-2-14.6-2.5-21.9c-0.2-3.7-0.3-7.4-0.4-11.2c0-0.3,0-0.5-0.1-0.8
	c-0.4,0-0.7,0.1-1,0.1c-1.1,0-2.1,0-3.2-0.1c-0.3,0-0.6-0.1-0.9-0.3c-0.5-0.3-0.4-0.9,0.1-1.1c0.2-0.1,0.5-0.1,0.7-0.1
	c0.8,0,1.6,0,2.5-0.1c0.2,0,0.4,0,0.7-0.1c-0.2-0.3-0.3-0.6-0.5-0.8c-0.5-1-1-2-1.4-3.1c-0.2-0.5,0-1,0.3-1.1c0.5-0.2,0.8,0.1,1,0.4
	c0.4,0.5,0.8,1.1,1.1,1.7c0.2,0.3,0.3,0.6,0.5,0.9c0.1,0,0.1,0,0.2-0.1c0.1-2.4,0.3-4.8,0.4-7.1c-0.7-0.5-1.4-0.9-2.1-1.5
	c-0.5,0.5-1.1,1-1.5,1.5c-2.6,3.2-4.9,6.6-6.7,10.4c-0.3,0.7-0.7,1.4-1.1,2.2c1.1,1.4,0.7,3.1,0.4,4.7c0.8,0,1.6-0.2,2.4-0.1
	c1.5,0.1,2.6,0.7,3.4,2c0.6,1.1,0.5,2.3-0.3,3.1c-1.1,1.2-2.5,1.8-4.2,1.4C301.9,329.3,301.2,329,300.5,328.7z M308.8,301.7
	c-0.2-0.3-0.2-0.5-0.3-0.6c-1.9-2.9-3.9-5.6-6.3-8.1c-1.5-1.6-3.1-3-4.9-4.1c-2.4-1.4-5-2.3-7.9-2c-0.6,0.1-1.2,0.1-1.8,0.4
	c1.2,1.3,2.4,2.6,3.5,3.9c0.2,0.2,0.5,0.5,0.6,0.8c0.3,0.5,0.2,0.9-0.2,1.2c-0.4,0.3-0.8,0.3-1.2-0.1c-0.8-0.8-1.6-1.6-2.3-2.3
	c-0.5-0.5-0.9-0.9-1.5-1.5c-0.1,0.3-0.1,0.5-0.1,0.6c-0.2,1.5-0.3,3-0.5,4.6c-0.1,0.6-0.2,0.9-0.7,0.9c-0.4,0-0.8-0.3-0.9-0.8
	c0-0.2-0.1-0.5,0-0.7c0.1-1.3,0.2-2.6,0.2-3.8c0-0.5,0-1,0-1.7c-0.4,0.2-0.7,0.4-1,0.6c-1.9,1.3-3.1,3.2-3.8,5.3
	c-1,3.1-1,6.3-0.7,9.5c0.4,3.8,1.5,7.4,2.7,11c0.1,0.3,0.2,0.5,0.3,0.8c0.4-2.2,1-4.3,1.9-6.3c0.9-2,2.2-3.7,3.8-5.5
	c-0.5,0-0.8,0-1.1-0.1c-0.5-0.1-1.1-0.1-1.6-0.3c-0.4-0.1-0.6-0.4-0.6-0.8c0-0.5,0.3-0.7,0.7-0.7c1.4,0,2.9-0.3,4.2,0.3
	c1.1-0.5,2.2-1.1,3.3-1.6c2.9-1.2,5.9-1.7,9-1.3c2.1,0.3,4.1,0.9,6.1,1.7C308,301.4,308.3,301.5,308.8,301.7z M335.4,302.1
	c0.4-1.5,0.7-2.9,0.5-4.4c-0.1-0.7-0.3-1.4-0.7-2.1c-0.5-1-1.1-1.1-1.7-0.1c-0.9,1.3-1,2.7-0.6,4.2c0.3,1.2,0.8,2.2,2.2,2.4
	C335.3,302.2,335.3,302.1,335.4,302.1z M337.4,303.4c0.4,0.1,0.6,0.2,0.9,0.2c1.9,0.2,3.5-0.8,4.1-2.5c0.2-0.5,0-0.8-0.6-0.9
	c-0.2,0-0.4,0-0.5,0C339.5,300.6,338.3,301.8,337.4,303.4z M332.9,304.2c-0.6,0-1-0.1-1.5-0.1c-1,0-2.1,0.2-3,0.6
	c-0.7,0.3-0.8,0.8-0.4,1.5c0.5,0.7,1.2,1,2,0.7C331.3,306.4,332.2,305.5,332.9,304.2z M300.8,325.5c0.4,0.7,0.9,1.3,1.6,1.7
	c0.8,0.5,1.5,0.4,2.2-0.1c0.7-0.5,0.8-1,0.2-1.6c-0.2-0.2-0.6-0.4-0.9-0.4C302.9,325,301.9,325.1,300.8,325.5z M296.5,325
	c-1-0.5-2.1-1-3.1-1.5c-0.3-0.1-0.7-0.1-1,0c-0.4,0.1-0.5,0.5-0.2,0.9c0.1,0.1,0.2,0.2,0.3,0.3C293.8,325.5,295.1,325.8,296.5,325z
	 M335.5,306.4c-0.4,2.2,0.1,4.3,1.2,5C337.3,310.3,336.8,308,335.5,306.4z M298.9,323.8c0.7-1.1,0.9-2.2,0.8-3.6
	c-0.2-0.1-0.4-0.3-0.7-0.4C298.1,321.1,298.3,322.4,298.9,323.8z M298,327.9c-0.8,0.6-1.5,1.3-1.7,2.4c-0.1,0.4-0.1,0.8,0.4,1.1
	C297.7,330.5,297.9,329.2,298,327.9z"/>
<g>
	<path class="st83" d="M291.6,226.9c-0.4,0.2-0.8,0.4-1.1,0.5c-0.4,0.1-0.8,0.3-1.2,0.3c-0.5,0.1-1-0.2-1.1-0.6
		c-0.2-0.5,0.1-0.9,0.4-1.1c0.7-0.5,1.4-1,2.2-1.5c0.9-0.5,0.9-0.5,0.7-1.6c-0.2,0.1-0.4,0.2-0.7,0.3c-0.3,0.1-0.5,0.2-0.8,0.2
		c-0.8,0.1-1.3-0.2-1.5-0.7c-0.1-0.5,0.1-0.9,0.8-1.3c0.3-0.2,0.7-0.4,1.1-0.5c-0.6-0.5-1.3-1.1-1.9-1.6c-0.2-0.2-0.5-0.5-0.7-0.8
		c-0.3-0.3-0.3-0.7-0.1-1.1c0.2-0.3,0.7-0.5,1.2-0.3c0.3,0.1,0.5,0.3,0.8,0.4c0.4,0.2,0.8,0.5,1.3,0.8c-1.1-8.9-2.6-17.6-4.1-26.3
		c-0.3,0.1-0.6,0.2-0.9,0.3c-1.8,0.8-3.7,1.4-5.6,1.7c-0.5,0.1-1.1,0.1-1.6,0.1c-0.4,0-0.8-0.3-0.9-0.7c-0.1-0.4,0.1-0.7,0.4-1
		c0.3-0.2,0.6-0.4,0.9-0.5c0.9-0.4,1.8-0.7,2.7-1.1c0.3-0.1,0.5-0.2,0.9-0.4c-1-0.5-1.9-0.9-2.7-1.3c-0.4-0.2-0.8-0.5-1.2-0.8
		c-0.3-0.3-0.5-0.7-0.3-1.2c0.2-0.5,0.6-0.6,1-0.6c1.1,0.2,2.2,0.4,3.3,0.6c0.3,0.1,0.6,0.2,0.8,0.3c-0.9-1.5-1.9-3.1-2.8-4.6
		c-0.2-0.4-0.4-0.8-0.6-1.2c-0.2-0.4-0.1-0.8,0.3-1.1c0.3-0.3,0.8-0.3,1.1-0.1c0.5,0.3,0.9,0.6,1.3,1c0.7,0.8,1.2,1.6,1.8,2.4
		c0.2,0.2,0.4,0.5,0.7,0.9c0-0.4,0-0.6-0.1-0.8c-0.9-6.3-2-12.5-2.8-18.8c-0.6-4.5-0.9-9.1-1.2-13.7c-0.2-3.4-0.3-6.9-0.1-10.4
		c0.2-5.3,1.2-10.5,3.2-15.5c0.1-0.1,0.1-0.3,0.2-0.6c-0.3,0.1-0.5,0.2-0.6,0.3c-0.6,0.5-1.2,0.9-1.8,1.4c-0.3,0.2-0.6,0.4-0.9,0.4
		c-0.6,0.1-1.1-0.1-1.4-0.5c-0.3-0.5-0.3-1,0.1-1.4c0.4-0.5,0.9-1,1.4-1.4c0.2-0.2,0.5-0.4,0.8-0.6c-0.7-0.4-1.2-0.7-1.7-1.1
		c-0.3-0.2-0.6-0.4-0.8-0.7c-0.6-0.7-0.2-1.6,0.6-1.6c0.5,0,1.1,0.1,1.6,0.2c0.3,0.1,0.5,0.2,0.8,0.3c0.3,0.1,0.5,0.2,0.9,0.4
		c-0.1-0.4-0.1-0.6-0.2-0.9c-0.1-0.8-0.2-1.6-0.2-2.5c0-0.7,0.4-1.2,1-1.3c0.6-0.1,1.2,0.2,1.4,1c0.2,0.8,0.3,1.6,0.4,2.4
		c0.1,0.6,0.1,1.1,0.2,1.9c0.2-0.3,0.4-0.5,0.5-0.7c0.8-1,1.5-2,2.3-2.9c0.8-0.9,1.7-1.4,2.8-1.8c1.8-0.6,3.4-0.4,5,0.7
		c1.3,0.9,2.2,2.1,3,3.4c1.1,1.8,1.8,3.8,2.5,5.8c0.3,1,0.6,2,1.1,3c0.1-0.8,0.3-1.6,0.4-2.4c1.6-10.3,3.1-20.5,5.7-30.6
		c1.2-4.9,2.8-9.6,4.6-14.3c0.5-1.2,1-2.3,1.5-3.4c0.6-1.1,1.2-2.2,1.9-3.3c-0.6-0.3-1.3-0.6-1.9-0.9c-0.5-0.2-1.1-0.5-1.6-0.7
		c-0.4-0.2-0.6-0.5-0.6-0.9c0-0.4,0.4-0.8,0.9-0.9c0.5,0,1,0,1.5,0.1c0.4,0.1,0.9,0.2,1.4,0.4c0-0.5,0.1-0.9,0.1-1.3
		c0-0.9,0.1-1.9,0.1-2.8c0-0.3,0.1-0.7,0.2-1c0.2-0.3,0.4-0.6,0.7-0.8c0.7-0.4,1.3,0,1.3,0.8c0,0.9,0.1,1.8,0.3,2.7
		c0.1-0.1,0.3-0.3,0.4-0.4c0.7-1.1,1.4-2.2,2.2-3.3c0.2-0.3,0.4-0.6,0.7-0.8c0.5-0.4,1.1-0.4,1.6,0c0.4,0.4,0.6,0.9,0.3,1.5
		c-0.4,0.8-0.9,1.6-1.4,2.5c-0.2,0.3-0.3,0.5-0.5,0.9c0.3-0.1,0.5-0.1,0.7-0.1c4.8-1.7,9,1.1,10.8,4.4c1.2,2.2,1.8,4.5,1.9,6.9
		c0.2,3.4,0,6.8-0.3,10.2c-0.3,3.1-0.6,6.1-1,9.2c-0.6,4.4-1.3,8.8-1.9,13.2c-0.2,1.1-0.3,2.1-0.5,3.3c0.3-0.2,0.5-0.4,0.7-0.5
		c1.4-1.2,2.8-2.4,4.3-3.6c0.3-0.2,0.6-0.4,0.9-0.6c0.5-0.2,1.1,0,1.5,0.4c0.3,0.4,0.3,1-0.1,1.5c-0.1,0.2-0.3,0.3-0.4,0.5
		c-1.7,1.5-3.4,2.9-5,4.4c-0.1,0.1-0.1,0.1-0.3,0.3c0.8,0.2,1.5,0.5,2.2,0.7c0.4,0.1,0.9,0.2,1.3,0.4c0.6,0.2,0.8,0.7,0.7,1.2
		c-0.1,0.5-0.5,0.8-1.2,0.7c-0.9-0.1-1.8-0.3-2.7-0.4c-0.2,0-0.3,0-0.6-0.1c0.6,0.9,1.2,1.7,1.7,2.5c0.5,0.7,1,1.4,1.5,2.1
		c0.5,0.8,0.5,1.3,0,1.8c-0.5,0.4-1.3,0.3-1.9-0.3c-1.1-1.3-2.2-2.6-3.4-3.9c-0.1-0.1-0.2-0.2-0.4-0.5c-0.1,0.5-0.2,0.8-0.2,1.1
		c-1.5,9.3-3.1,18.6-4.6,27.8c-1,6.4-2,12.9-2.9,19.3c-0.8,5.5-1.4,11-2.1,16.5c-0.7,5.5-1.3,11.1-1.9,16.7
		c-0.5,4.5-0.9,8.9-1.4,13.4c-0.4,4.1-0.7,8.2-1.1,12.2c-0.2,2.1-0.5,4.2-1.3,6.2c-0.6,1.6-1.5,3-2.9,3.9c-2.1,1.5-5.2,1.4-7.2-0.2
		c-0.5-0.4-0.8-0.5-1.4-0.2c-1.7,0.7-3.5,1.2-5.4,1.2c-2.9,0-5-1.3-6.2-4c-0.8-1.7-1.2-3.6-1.4-5.5c-0.2-1.6-0.3-3.2-0.4-4.7
		C291.6,227.3,291.6,227.2,291.6,226.9z M331.4,74c-0.1,0.3-0.1,0.4-0.1,0.5c-0.2,1.6-0.3,3.2-0.5,4.7c-0.4,3.4-0.9,6.7-1.4,10.1
		c-0.8,5.2-1.8,10.3-2.6,15.4c-1,5.7-1.9,11.4-2.8,17.1c-0.9,5.7-1.8,11.4-2.7,17.1c-0.8,4.9-1.6,9.8-2.3,14.7
		c-0.2,1.2-0.4,2.3-0.6,3.6c0.3,0,0.5-0.1,0.6-0.1c0.7-0.1,1.3-0.3,2-0.4c0.6-0.1,1,0.2,1.2,0.6c0.2,0.5,0,0.9-0.5,1.2
		c-0.5,0.3-1,0.5-1.5,0.7c-0.4,0.2-0.9,0.3-1.4,0.5c0.5,0.4,0.9,0.7,1.3,1c0.3,0.2,0.6,0.5,0.9,0.8c0.3,0.3,0.4,0.7,0.1,1
		c-0.2,0.2-0.6,0.4-0.8,0.4c-0.4,0-0.8-0.2-1.1-0.3c-0.2-0.1-0.5-0.2-0.8-0.3c0.2,0.4,0.3,0.7,0.4,1c0.5,1.3,1,2.6,1.5,3.8
		c0.2,0.6,0.1,1.1-0.4,1.3c-0.5,0.2-1,0.1-1.3-0.5c-0.2-0.3-0.3-0.6-0.4-0.9c-0.2-0.5-0.5-1-0.7-1.5c-0.1,0-0.1,0-0.2,0
		c-0.3,1.6-0.6,3.2-0.8,4.7c-0.6,3.9-1.2,7.8-1.7,11.7c-0.7,4.6-1.3,9.3-1.9,13.9c-0.5,3.8-1.1,7.6-1.6,11.3
		c-0.2,1.6-0.6,3.1-0.4,4.7c0.1,0.5,0.1,0.9,0.1,1.4c0.4,4.4,0.7,8.7,1,13.1c0.2,2.2,0.2,4.3-0.1,6.5c-0.3,2.1-1.1,3.9-2.7,5.4
		c-0.1,0.1-0.2,0.3-0.4,0.5c2.3,1,3.8,0.2,4.7-1.4c0.3-0.5,0.6-1,0.7-1.6c0.3-1.4,0.7-2.7,0.9-4.1c0.5-4.7,0.9-9.5,1.3-14.2
		c0.3-3.3,0.6-6.6,1-9.8c0.4-3.5,0.8-7,1.2-10.6c0.4-3.9,0.9-7.8,1.4-11.7c0.6-4.9,1.2-9.8,1.9-14.7c0.8-5.9,1.7-11.7,2.7-17.6
		c0.9-5.8,1.9-11.6,2.9-17.4c0.8-5.1,1.7-10.1,2.5-15.2c0.9-5.4,1.8-10.7,2.6-16.1c0.9-5.9,1.5-11.8,1.8-17.7c0.1-2.2,0-4.5-0.1-6.7
		c-0.1-1.7-0.7-3.4-1.6-4.8C332,74.9,331.7,74.5,331.4,74z M306.8,236.1c0.9-0.8,1.3-1.6,1.5-2.6c0.2-1,0.4-2.1,0.4-3.2
		c-0.1-2.5-0.2-5.1-0.4-7.6c-0.4-5.4-0.8-10.7-1.2-16.1c-0.2-3-0.3-6-0.4-9.1c-0.3-5.3-0.6-10.7-0.8-16c-0.3-5.7-0.5-11.4-0.7-17.1
		c-0.3-6-0.6-12.1-1.3-18.1c-0.5-4.5-1.2-9-2.2-13.5c-0.8-3.3-1.7-6.6-3.1-9.7c-0.5-1.2-1.2-2.4-2-3.4c-0.3-0.4-0.7-0.8-1.3-1
		c0.1,0.6,0.1,1,0.2,1.5c0.3,3.4,0.7,6.7,1,10.1c0.4,5.1,0.8,10.3,1.2,15.4c0.2,2.4,0.3,4.8,0.5,7.2c0.3,4.7,0.7,9.4,1.1,14.1
		c0.2,3.1,0.5,6.3,0.8,9.4c0.5,5,0.9,10,1.4,15c0.1,1.2,0.3,2.5,0.4,3.8c0.4-0.2,0.6-0.4,0.8-0.6c0.6-0.4,1.1-0.9,1.6-1.3
		c0.6-0.4,1.1-0.4,1.5-0.1c0.4,0.4,0.4,1-0.1,1.6c-0.3,0.3-0.6,0.6-0.9,0.9c-0.5,0.5-1,1-1.7,1.6c0.6,0.1,1,0.1,1.4,0.1
		c0.3,0,0.6,0.1,0.9,0.2c0.5,0.2,0.7,0.6,0.7,1c0,0.4-0.4,0.8-0.8,0.9c-0.3,0.1-0.7,0-1,0c-0.2,0-0.5,0.1-0.9,0.1
		c0.5,0.6,0.8,1.1,1.2,1.6c0.2,0.3,0.5,0.5,0.8,0.8c0.3,0.3,0.4,0.6,0.2,1c-0.2,0.4-0.5,0.6-0.9,0.5c-0.4-0.1-0.8-0.3-1.1-0.5
		c-0.3-0.2-0.6-0.5-0.8-0.8C303.6,213.7,305.1,224.8,306.8,236.1z M327.2,71.9c-0.2,0.6-0.3,1.1-0.4,1.7c-2.4,9.2-4.3,18.5-6.2,27.9
		c-1,5.2-2,10.5-3,15.8c-1.9,10.1-3.9,20.2-5.8,30.3c-1.1,5.5-2.2,11-3.3,16.5c-0.2,0.8-0.4,1.6-0.3,2.4c0.1,3.6,0.3,7.1,0.4,10.7
		c0.3,5.9,0.5,11.7,0.8,17.6c0,0.9,0.1,1.8,0.2,2.7c0.1-0.1,0.1-0.3,0.2-0.4c0.3-2.6,0.7-5.2,1-7.8c0.4-3.3,0.9-6.6,1.4-9.9
		c0.6-3.9,1.1-7.7,1.7-11.6c1-6,2-12,3-18.1c1.3-8.2,2.5-16.5,3.9-24.7c1.3-8,2.7-16,4.1-23.9c1.6-9,3.3-17.9,4.5-26.9
		c0.2-1.7,0.1-1.9-1.6-2.2C327.7,72,327.5,72,327.2,71.9z M293.4,118.6c-0.1,0-0.2,0-0.2,0c-0.1,0-0.2,0.1-0.3,0.1
		c-1.6,0.8-2.5,2.2-3.4,3.6c-0.1,0.1-0.1,0.2-0.1,0.4c-0.1,0.5-0.1,1.1-0.1,1.6c-0.2,4.6-0.2,9.1,0.2,13.6c0.3,4.4,0.7,8.7,1.1,13.1
		c0.3,3.7,0.6,7.4,1,11.1c0.6,6,1.2,12,2,17.9c0.6,4.6,1.2,9.3,1.9,13.9c0.9,6.2,2,12.3,3,18.4c1.3,8.4,2.6,16.8,3.9,25.3
		c0,0.2,0.1,0.4,0.2,0.7c0.9-0.3,1.6-0.6,2.2-0.8c0.3-1.2,0-2.2-0.2-3.2c-0.1-0.6-0.3-1.3-0.4-1.9c-0.6-3.6-1.2-7.3-1.7-11
		c-0.7-5-1.3-10-2-15.1c-0.4-3.4-0.8-6.9-1.2-10.3c-0.5-4.3-1-8.7-1.4-13c-0.4-3.7-0.7-7.5-1-11.2c-0.4-4.7-0.7-9.5-1-14.3
		c-0.2-2.7-0.3-5.4-0.5-8c0-0.4-0.1-0.8-0.2-1.2c-0.2,0.3-0.4,0.6-0.5,0.9c-0.1,0.3-0.2,0.6-0.3,1c-0.2,0.4-0.5,0.6-0.9,0.6
		c-0.4,0-0.8-0.3-0.9-0.8c0-0.5,0-1,0.1-1.5c0.1-0.7,0.3-1.3,0.5-1.9c0-0.2,0.1-0.4,0.1-0.6c-0.5,0.1-0.8,0.2-1.2,0.3
		c-0.8,0-1.3-0.7-0.9-1.4c0.2-0.4,0.7-0.8,1-1.1c0.3-0.3,0.7-0.5,1.1-0.8c-0.3-0.3-0.6-0.5-0.9-0.8c-0.4-0.4-0.8-0.8-1.1-1.2
		c-0.4-0.6-0.4-1-0.1-1.4c0.3-0.4,0.9-0.5,1.5-0.2c0.6,0.3,1,0.7,1.6,1.1c0.2,0.1,0.3,0.2,0.6,0.4
		C294.5,133.5,294,126.1,293.4,118.6z M325.4,72.2c-0.4,0.1-0.6,0.2-0.9,0.3c-1.5,0.6-2.6,1.7-3.6,2.9c-1.5,1.9-2.6,4-3.5,6.3
		c-3.4,8.3-5.8,16.9-7.5,25.7c-1.7,8.7-3.2,17.4-4.8,26.1c-0.1,0.4-0.1,0.9,0,1.3c1.2,6.2,2,12.5,2.4,18.9c0,0.6,0.1,1.2,0.2,1.8
		c0,0,0.1,0,0.1,0c2.3-12.2,4.6-24.4,6.9-36.7c-0.4,0.2-0.6,0.4-0.9,0.5c-0.5,0.2-0.9,0.4-1.4,0.6c-0.4,0.1-0.8-0.1-1-0.5
		c-0.2-0.3-0.2-0.7,0-1c0.2-0.3,0.4-0.6,0.7-0.8c0.6-0.5,1.2-1,1.8-1.5c-0.3-0.1-0.6-0.1-0.8-0.2c-0.6-0.2-1.1-0.4-1.7-0.7
		c-0.4-0.2-0.6-0.6-0.5-1.1c0.1-0.4,0.5-0.8,1-0.8c0.7,0,1.4,0.1,2.1,0.1c0.2,0,0.4,0,0.8,0.1c-0.3-0.5-0.6-0.8-0.8-1.2
		c-0.5-0.8-0.9-1.6-1.4-2.5c-0.2-0.3-0.2-0.7,0.1-1c0.3-0.4,0.7-0.4,1.1-0.3c0.3,0.1,0.7,0.3,0.9,0.5c0.4,0.4,0.7,0.9,1.1,1.3
		c0.1,0.1,0.2,0.3,0.4,0.5c1.4-6.5,2.8-12.9,4.1-19.3C321.8,85.1,323.3,78.7,325.4,72.2z M287.5,127c-0.1,0-0.1,0-0.2,0
		c-0.1,0.3-0.2,0.5-0.3,0.8c-0.4,1.3-0.8,2.5-1.1,3.8c-1.2,4.5-1.5,9.1-1.5,13.7c0.1,6.1,0.5,12.1,1.3,18.1
		c0.8,6.2,1.7,12.3,2.7,18.5c0.9,6.1,2,12.1,2.8,18.2c0.9,6.4,1.8,12.8,2.6,19.1c0.4,3.1,0.6,6.3,0.9,9.4c0.2,2.2,0.5,4.4,1.1,6.6
		c0.3,0.8,0.6,1.6,1.1,2.3c0.8,1.3,2.4,1.7,3.8,1.2c0-0.1-0.1-0.3-0.1-0.4c-0.4-2.1-0.9-4.2-1.3-6.3c-1-6.3-2-12.5-3-18.8
		c-1.4-8.6-2.9-17.1-4.2-25.7c-0.8-5.5-1.5-11-2.1-16.5c-0.5-4.3-0.8-8.7-1.2-13c-0.4-5-0.7-10-1.1-15c-0.3-4.3-0.5-8.7-0.3-13
		C287.3,129,287.4,128,287.5,127z"/>
	<path class="st83" d="M350.7,187.9c0.4-0.2,0.6-0.3,0.9-0.5c1.3-0.8,2.6-1.6,3.9-2.4c0.8-0.5,1.4-0.4,1.7,0
		c0.4,0.5,0.3,1.1-0.5,1.7c-1.2,1-2.5,1.9-3.8,2.9c-0.2,0.2-0.5,0.4-0.9,0.6c0.6,0.2,1,0.3,1.4,0.4c0.7,0.2,1.4,0.4,2.1,0.7
		c0.4,0.1,0.7,0.4,0.7,0.9c0,0.4-0.3,0.7-0.8,0.8c-0.2,0-0.5,0-0.7,0c-1-0.1-2-0.3-3-0.4c-0.3,0-0.5,0-1-0.1
		c0.3,0.4,0.5,0.6,0.6,0.9c1.3,1.9,2.7,3.7,4,5.6c0.2,0.3,0.5,0.7,0.7,1.1c0.3,0.5,0.2,0.9-0.2,1.3c-0.3,0.3-0.9,0.4-1.3,0.1
		c-0.3-0.2-0.6-0.4-0.8-0.7c-1.4-1.7-2.8-3.3-4.3-5c-0.1-0.2-0.3-0.3-0.5-0.6c-0.3,1.3-0.6,2.6-0.8,3.8c-1.5,7.6-2.8,15.2-3.9,22.8
		c-0.5,3.5-1,6.9-1.6,10.4c-0.4,2.4-1.3,4.6-2.5,6.6c-1.7,2.8-4.3,4.5-7.5,5.2c-1.4,0.3-2.7,0.3-4.1-0.1c-1.7-0.4-3-1.4-3.8-3.1
		c-0.7-1.5-1-3.2-1.2-4.9c-0.1-2,0-4,0.3-5.9c0.2-2,0.3-4,0.4-6c0.3-5.2,0.5-10.4,0.7-15.6c0.3-6.2,1.1-12.4,1.9-18.5
		c0.1-0.5,0.2-1.1,0.2-1.7c-0.4,0.1-0.6,0.2-0.9,0.3c-0.6,0.1-1,0-1.2-0.4c-0.2-0.4,0-0.8,0.3-1.1c0.6-0.5,1.2-1.1,1.8-1.6
		c0.2-0.2,0.4-0.4,0.6-0.6c0-0.1-0.1-0.1-0.1-0.2c-0.2,0-0.4,0.1-0.7,0.1c-0.5,0-1,0.1-1.5,0c-0.4-0.1-0.8-0.4-0.9-0.8
		c-0.1-0.4,0.1-0.8,0.5-1c0.5-0.3,1.1-0.4,1.8-0.6c-0.1-0.2-0.3-0.4-0.4-0.7c-0.3-0.7-0.7-1.4-1-2.2c-0.2-0.6-0.1-1,0.3-1.2
		c0.4-0.3,0.8-0.2,1.3,0.3c0.4,0.5,0.8,1,1.3,1.7c0.1-0.7,0.3-1.3,0.4-1.9c1.1-5.6,2.3-11.1,4-16.5c0.7-2.2,1.6-4.4,2.8-6.4
		c1.4-2.4,3.2-4.5,5.4-6.2c0.1-0.1,0.3-0.2,0.5-0.4c-0.5-0.5-0.9-1-1.3-1.5c-0.4-0.5-0.8-1-1.1-1.6c-0.4-0.6-0.3-1.2,0.2-1.6
		c0.5-0.3,1.1-0.3,1.6,0.2c0.4,0.4,0.8,0.8,1.2,1.2c0.2,0.2,0.5,0.4,0.9,0.8c0-0.5,0-0.8,0-1c0-0.8,0.1-1.6,0.2-2.5
		c0.1-0.8,0.6-1.2,1.2-1.2c0.6,0,1.1,0.4,1.2,1.2c0.1,0.7,0.1,1.5,0,2.2c0,0.4-0.1,0.9-0.1,1.4c0.4-0.5,0.8-1.1,1.3-1.6
		c1.2-1.3,2.4-2.5,3.6-3.8c0.2-0.2,0.5-0.4,0.8-0.5c0.4-0.2,0.8-0.1,1.2,0.2c0.4,0.3,0.5,0.8,0.3,1.2c-0.2,0.5-0.4,0.9-0.8,1.3
		c-0.7,0.9-1.5,1.7-2.3,2.6c-0.1,0.2-0.3,0.3-0.5,0.5c0.5,0.1,0.8,0.1,1.2,0.2c1.8,0.3,3.2,1.2,4.1,2.7c1,1.5,1.5,3.2,1.8,5
		c0.4,2.9,0.2,5.8-0.1,8.7c-0.7,5.7-2.1,11.2-3.5,16.8c-0.6,2.5-1.2,4.9-1.8,7.4C350.8,187.3,350.8,187.5,350.7,187.9z M327.9,240.4
		c0.1-0.5,0.3-0.8,0.3-1.2c0.4-3.7,0.7-7.4,1.1-11c0.6-5,1.4-9.9,2.1-14.9c0.8-4.9,1.6-9.9,2.5-14.8c1.4-8,3-15.9,4.5-23.8
		c0.1-0.5,0.2-1,0.3-1.7c-0.3,0.2-0.4,0.3-0.5,0.3c-0.4,0.3-0.8,0.6-1.2,0.8c-0.7,0.5-1.3,0.5-1.7,0.1c-0.4-0.4-0.3-0.9,0.3-1.7
		c0.4-0.5,0.9-1,1.4-1.4c0.2-0.2,0.3-0.3,0.5-0.4c-0.6-0.2-1.2-0.4-1.8-0.7c-0.7-0.4-1-0.9-0.9-1.3c0.1-0.6,0.7-0.8,1.5-0.8
		c0.3,0,0.5,0,0.8,0.1c-0.2-0.6-0.4-1.2-0.6-1.7c-0.2-0.7,0-1.2,0.5-1.5c0.5-0.3,1.1-0.1,1.5,0.4c0.3,0.4,0.5,0.9,0.8,1.3
		c0.1,0.3,0.3,0.6,0.5,1c1.3-5.6,2.6-11,3.8-16.4c-0.1,0-0.1-0.1-0.2-0.1c-0.6,0.5-1.2,1-1.8,1.5c-2.2,2-3.7,4.6-4.9,7.3
		c-1,2.4-1.7,5-2.4,7.5c-2,7.8-3.4,15.7-4.6,23.7c-1.2,8-2,16.1-2.5,24.2c-0.2,3.8-0.5,7.6-0.7,11.4c-0.1,1.6-0.2,3.3-0.3,4.9
		c-0.2,2.3,0,4.5,0.7,6.7C327.1,239.1,327.3,239.7,327.9,240.4z M334.2,211.3c0.5-0.2,0.9-0.3,1.4-0.4c0.6-0.1,1.1,0.1,1.3,0.6
		c0.2,0.5,0,1-0.5,1.3c-0.2,0.1-0.4,0.2-0.6,0.3c-0.3,0.2-0.7,0.4-1,0.6c0.4,0.3,0.8,0.5,1.1,0.7c0.5,0.5,0.4,1.1-0.3,1.3
		c-0.3,0.1-0.6,0-0.9,0c-0.2,0-0.4-0.1-0.7-0.2c0,0.2,0,0.3,0,0.4c0.4,1,0.8,2.1,1.3,3.1c0.2,0.4,0.3,0.7,0,1
		c-0.2,0.3-0.6,0.5-1,0.4c-0.3-0.1-0.6-0.2-0.9-0.4c-0.2-0.1-0.3-0.4-0.5-0.6c-0.1,0.4-0.2,0.5-0.2,0.7c-0.6,4.8-1.3,9.5-1.9,14.3
		c-0.3,2.1-0.3,4.2-1,6.2c-0.1,0.2,0,0.4-0.1,0.7c0.9,0.1,1.8,0.1,2.7-0.2c-0.5-0.2-1-0.3-1.4-0.6c-0.4-0.2-0.6-0.6-0.5-1.1
		c0.1-0.4,0.4-0.7,0.8-0.8c0.3-0.1,0.7,0,1-0.1c0.2,0,0.5,0,0.7,0c-0.4-0.5-0.8-1-1.1-1.5c-0.3-0.6-0.2-1.2,0.2-1.5
		c0.4-0.3,1-0.3,1.5,0.1c0.3,0.2,0.6,0.5,0.9,0.9c0.1-0.3,0.1-0.5,0.1-0.8c0.3-3.6,0.6-7.1,0.9-10.7c0.5-5,1.4-10,2.4-14.9
		c1.3-6.8,2.7-13.6,4.1-20.4c2.5-11.9,5-23.8,7.5-35.8c0.3-1.5,0.6-3,1-4.6c-0.2-0.1-0.3-0.2-0.5-0.2c-1.1-0.3-2.2-0.1-3.3,0.2
		c-0.7,0.1-0.9,0.5-1.1,1.1c-1,5-2.2,9.9-3.1,14.9c-1.7,8.8-3.3,17.6-5,26.4c-0.9,4.8-1.7,9.7-2.5,14.5
		C334.7,208,334.5,209.5,334.2,211.3z M336.8,238.2c0,0,0.1,0,0.1,0.1c0.3-0.5,0.6-1,0.9-1.5c1.2-2.2,1.8-4.6,2.2-7
		c0.8-5,1.4-10,2.2-15c0.9-5.6,1.9-11.3,3-16.9c1.5-7.8,3.6-15.5,5.5-23.3c1.2-4.9,2.3-9.9,2.6-15c0.1-2,0.1-4-0.3-6
		c-0.2-0.9-0.4-1.8-1-2.7c-0.1,0.2-0.1,0.4-0.2,0.5c-0.6,3.4-1.2,6.7-1.9,10.1c-1.5,7.8-3.1,15.7-4.7,23.5
		c-2.1,10.6-4.5,21.1-6.2,31.8c-0.6,3.9-1.1,7.7-1.6,11.6c-0.3,2.4-0.5,4.8-0.7,7.2C336.8,236.6,336.8,237.4,336.8,238.2z"/>
</g>
<g>
	<path class="st88" d="M182.5,194.5c0.9-2.9,2.1-5.5,4-7.7c-0.4-0.9-0.8-1.7-1-2.5c-0.2-0.5-0.3-1.1-0.2-1.7c0.1-1.2,1.1-1.6,2-0.9
		c0.6,0.5,1.1,1.1,1.6,1.7c0.3,0.3,0.5,0.6,0.8,0.9c2.5-1.5,5.2-2.3,8-2.9c-0.5-2.5-0.9-5-1.4-7.6c-0.5,0-0.9,0.1-1.3,0.1
		c-0.7,0-1.5,0.1-2.2,0.1c-1.1,0-1.5-0.9-0.9-1.8c0.4-0.5,0.9-1,1.4-1.4c0.7-0.5,1.5-1,2.3-1.6c-0.1-0.5-0.1-1.2-0.2-1.8
		c0-0.2-0.3-0.4-0.5-0.6c-1.5-1.5-3-2.9-4.4-4.5c-1.2-1.4-2.3-2.9-3.5-4.5c-0.5,0.1-1,0.3-1.6,0.5c-0.7,0.2-1.5,0.3-2.2,0.4
		c-0.5,0.1-1-0.1-1.2-0.6c-0.2-0.5-0.1-1,0.3-1.3c0.7-0.7,1.4-1.3,2.1-1.9c0.3-0.2,0.6-0.4,0.9-0.6c-1.7-3.6-3-7.3-3.9-11.1
		c-1-3.8-1.6-7.6-2-11.6c-0.5,0-0.9,0-1.3,0c-0.6-0.1-1.2-0.1-1.8-0.2c-0.6-0.1-1-0.5-1.1-1.1c-0.1-0.6,0.2-1,0.7-1.3
		c0.8-0.4,1.6-0.8,2.4-1.2c0.3-0.1,0.6-0.2,0.9-0.3c0-0.5,0-1,0-1.5c-0.1-3.2,0-6.4,0.4-9.6c0.3-2,0.6-4,1.3-5.9
		c0.5-1.4,1.2-2.7,2.4-3.7c0.3-0.3,0.3-0.5,0.2-0.9c-0.1-1-0.3-2-0.3-3c0-0.9,0.3-1.5,0.9-1.6c0.6-0.2,1.3,0.2,1.7,1
		c0.4,0.9,0.8,1.8,1.1,2.7c0.2,0.6,0.5,0.9,1.1,1.1c0.8,0.3,1.6,0.9,2.5,1.4c0.1-0.2,0.3-0.5,0.4-0.8c0.8-1.6,1.5-3.3,2.4-4.9
		c0.9-1.7,2.1-3.1,3.7-4.2c1.5-1.1,3.1-1.6,4.9-1.6c2.2,0.1,3.8,1,4.7,2.9c1.1,2.3,1.1,4.6,0.5,7.1c-0.5,1.7-1.3,3.2-2.4,4.5
		c-1.7,2.1-3.7,4-5.8,5.7c-0.9,0.7-1.7,1.3-2.6,2c-0.1,0.1-0.3,0.2-0.4,0.3c-0.6,0.6-0.9,1.2-0.8,2.1c0.4,4.1,0.8,8.2,1.2,12.3
		c0.4,4.4,1.1,8.8,2.2,13.2c0.1,0.3,0.2,0.6,0.3,1c2.5-3.5,5.6-5.8,10-6.3c0-1.1,0-2.2,0-3.2c0-0.9,0.3-1.8,0.8-2.6
		c0.7-1.2,1.9-1.2,2.5,0c0.3,0.5,0.5,1,0.5,1.5c0.2,1.2,0.3,2.4,0.4,3.6c0,0.4,0,0.8,0,1.2c0.2,0.1,0.3,0.2,0.4,0.2
		c3,1.2,4.8,3.5,5.9,6.5c0.8,2.4,1,4.8,1,7.3c-0.1,3.7-0.7,7.4-1.4,11c0,0.2-0.1,0.4-0.1,0.6c0,0.1,0,0.2,0,0.3
		c0.7,0.3,1.4,0.6,2.1,0.9c0.5,0.2,1,0.5,1.4,0.9c0.4,0.3,0.7,0.7,0.5,1.3c-0.1,0.6-0.6,0.8-1.1,0.8c-0.9,0-1.9-0.1-2.8-0.1
		c-0.3,0-0.6-0.1-1-0.2c-1,3.6-2,7.2-3,10.8c0.1,0.1,0.2,0.1,0.3,0.2c4.9,1.8,7.9,5.5,9.4,10.4c0.3,1,0.5,2.1,0.8,3.2
		c0,0.2,0.1,0.4,0.2,0.6c1.4-2.1,2.8-4.1,4.2-6c-0.4-1-0.9-1.9-1.3-2.9c-0.1-0.2-0.2-0.5-0.3-0.8c-0.1-0.4-0.1-0.7,0.3-1
		c0.4-0.3,0.8-0.3,1.1,0c0.3,0.2,0.6,0.4,0.8,0.7c0.5,0.5,0.9,1,1.5,1.7c0.2-0.3,0.4-0.6,0.6-0.8c0.8-0.8,1.7-1.7,2.6-2.5
		c0.5-0.5,0.6-0.9,0.4-1.5c-0.3-0.6-0.5-1.3-0.8-2c-1.7-4-2.9-8.2-3.5-12.5c0-0.2-0.1-0.3-0.2-0.5c-0.7-0.1-1.4-0.2-2.1-0.4
		c-0.6-0.1-1.2-0.3-1.3-1c-0.1-0.7,0.4-1,1-1.3c0.6-0.3,1.3-0.6,2-0.9c0-0.7,0-1.5,0-2.3c0.1-1.3,0.1-2.7,0.4-4
		c0.3-1.7,1.2-3.1,2.5-4.3c1.9-1.6,4.2-1.7,6.3-0.5c0.2,0.1,0.3,0.2,0.6,0.3c1.5-2.4,2.7-4.8,3.6-7.5c-0.3-0.2-0.5-0.4-0.8-0.6
		c-0.8-0.7-1.5-1.4-1.8-2.5c-0.3-1,0.1-1.6,1.1-1.5c0.5,0,1.1,0.2,1.6,0.4c0.4,0.1,0.7,0.3,1.2,0.5c0.1-0.4,0.3-0.7,0.4-1
		c0.6-1.4,1.1-2.7,1.7-4.1c0.5-1.1,1.1-2,2-2.8c2.1-1.9,4.7-1.8,6.6,0.4c0.4,0.5,0.8,1.1,1.1,1.6c0.9-0.5,1.8-1,2.6-1.5
		c0.3-0.2,0.7-0.3,1.1-0.3c0.8,0,1.3,0.7,0.9,1.4c-0.1,0.2-0.3,0.5-0.4,0.7c-1,1.2-2,2.4-3,3.6c-0.3,0.3-0.4,0.7-0.4,1.1
		c-0.5,6.3-2.8,11.6-7.6,15.8c-1.7,1.5-3.6,2.5-5.8,3.1c0.7,3.1,1.5,6.2,2.2,9.2c0.9-0.3,1.7-0.7,2.5-1c0.4-0.1,0.9-0.3,1.3-0.2
		c1,0.1,1.4,0.9,0.7,1.7c-0.5,0.6-1.1,1.1-1.6,1.6c-0.6,0.5-1.1,1-1.8,1.5c-0.4,0.3-0.5,0.6-0.5,1.1c0.2,1.4,0.4,2.7,0.5,4.1
		c0,0.4,0,0.7,0,1c1.4,0.8,2.8,1.5,4.1,2.2c0.7-0.5,1.5-1,2.3-1.5c0.3-0.2,0.7-0.4,1.1-0.5c0.9-0.2,1.5,0.3,1.5,1.2
		c0,0.5-0.2,1.1-0.4,1.6c-0.3,0.6-0.6,1.2-1,1.7c-0.7,0.8-0.5,1.5-0.2,2.3c0.3,1,0.7,2.1,0.9,3.2c0.5,2.5,0,4.9-0.8,7.3
		c-0.1,0.3-0.2,0.5-0.3,0.8c0,0,0,0.1,0,0.2c0.2,0,0.4,0.1,0.6,0.1c0.9,0.2,1.8,0.3,2.7,0.5c0.3,0.1,0.6,0.2,0.8,0.4
		c0.7,0.5,0.7,1.3,0,1.7c-0.5,0.3-1,0.4-1.5,0.5c-1.4,0.2-2.8,0.3-4.2,0.6c-0.3,0-0.6,0.2-0.7,0.4c-2.5,3.2-5.6,5.6-9,7.8
		c-1.3,0.8-2.6,1.6-3.9,2.4c-0.2,0.1-0.4,0.2-0.6,0.4c0.2,0.5,0.4,0.9,0.5,1.4c0.2,0.6,0.4,1.2,0.5,1.8c0.1,0.3,0.1,0.6,0,0.9
		c-0.2,0.8-0.8,1.1-1.5,0.6c-0.6-0.4-1.2-0.9-1.7-1.5c-0.4-0.4-0.8-0.9-1.3-1.4c-0.2,0.1-0.5,0.2-0.7,0.3c-3.6,1.6-7.1,3.3-10.7,4.9
		c-0.9,0.4-1.8,0.7-2.7,1c-0.3,0.1-0.6,0.3-0.7,0.7c-0.7,1.7-1.4,3.5-2.1,5.2c0,0.1,0,0.2,0,0.3c0.6,0.1,1.2,0.2,1.8,0.4
		c0.6,0.2,1.3,0.5,1.8,0.8c0.9,0.6,0.8,1.5-0.1,2c-0.5,0.2-1,0.4-1.5,0.5c-1.2,0.2-2.5,0.4-3.7,0.6c-0.5,0.1-0.7,0.3-0.9,0.7
		c-1.3,2.3-2.8,4.5-4.6,6.5c-2.6,3.1-5.9,4.7-9.9,5.3c-2.3,0.3-4.3-0.3-6.2-1.6c-1.4-1-2.4-2.3-3.1-3.8c-1.4-2.9-2.7-5.9-4.1-8.9
		c-0.2-0.4-0.4-0.9-0.6-1.3c-0.9-0.1-1.7-0.2-2.7-0.3c-0.1,0.3-0.2,0.5-0.3,0.7c-0.3,0.8-0.6,1.5-0.9,2.3c-0.2,0.4-0.4,0.8-0.7,1.1
		c-0.8,0.8-1.8,0.4-2.1-0.6c-0.1-0.2-0.1-0.5-0.1-0.7c0-0.8,0.1-1.5,0.1-2.3c0-0.4,0.1-0.8,0.1-1.2c-4.5-1.1-8.9-2.4-12.9-4.8
		c-0.5,0.6-0.9,1.2-1.5,1.7c-0.4,0.4-0.9,0.8-1.4,1.1c-1.2,0.5-2.1-0.2-1.9-1.5c0.1-0.5,0.2-1,0.4-1.5c0.1-0.4,0.3-0.7,0.4-1.1
		c0.2-0.4,0.3-0.7,0.5-1.2c-0.2-0.2-0.5-0.4-0.7-0.7c-1.7-1.6-3-3.4-3.7-5.7c-0.6-1.9-0.7-3.9-0.1-5.9c0.7-2.6,2.1-4.8,4-6.6
		c1.5-1.4,3.2-2.2,5.3-2.4c0.1-0.8,0.2-1.5,0.4-2.2c0.2-0.8,0.5-1.6,0.9-2.4c0.2-0.3,0.5-0.6,0.8-0.9c0.8-0.6,1.5-0.4,1.9,0.5
		c0.2,0.5,0.3,1,0.4,1.5c0.4,1.6,0.8,3.1,1.2,4.7c0,0.2,0.2,0.4,0.4,0.5c2.2,1.3,4.1,3,6,4.7c0.1,0.1,0.1,0.1,0.3,0.2
		c0.1-2.3,0.1-4.6,0.2-6.9c-0.7-0.3-1.4-0.7-2.1-1c-0.4-0.3-0.9-0.6-1.2-0.9c-0.8-0.8-0.5-1.8,0.6-2.1c0.7-0.2,1.4-0.2,2.2,0
		C181.5,194.3,181.9,194.4,182.5,194.5z M222.1,200.1c0-0.4,0-0.9,0-1.3c0-2.9-0.6-5.6-1.9-8.2c-1.3-2.8-3.4-4.7-6.2-5.9
		c-2.2-0.9-4.6-1.3-7-1.4c-2.3-0.1-4.6,0.1-6.8,0.5c-2.8,0.5-5.6,1.2-8.1,2.4c-2.3,1.1-4,2.8-5.2,5c-1.6,3.1-2.5,6.4-2.8,9.9
		c-0.3,4,0.3,7.9,1,11.7c0.6,3.3,1.5,6.4,2.8,9.4c0.9,2,1.8,4.1,2.7,6.1c1.3,2.9,2.7,5.7,4.2,8.6c0.3,0.7,0.8,1.3,1.2,1.9
		c1.2,1.4,2.8,2.2,4.6,2c3-0.4,5.6-1.4,7.7-3.7c2.1-2.3,3.8-4.7,5.2-7.4c2.9-5.5,5.1-11.3,6.8-17.3
		C221.4,208.4,222.1,204.3,222.1,200.1z M221.8,217.9c0.4-0.2,0.6-0.3,0.8-0.4c1.9-1,3.9-2,5.8-2.9c3.8-1.8,7.6-3.5,11.2-5.7
		c2.7-1.6,5.3-3.3,7.7-5.5c2-1.8,3.6-3.8,4.6-6.3c1.1-2.8,1.6-5.6,0.6-8.6c-0.6-1.9-1.5-3.6-3.1-4.9c-1.8-1.5-3.9-2-6.3-1.4
		c-1.9,0.5-3.6,1.5-5.2,2.6c-2.3,1.7-4.4,3.6-6.1,5.8c-2.2,2.8-4.3,5.6-6.4,8.4c-0.2,0.2-0.2,0.6-0.2,0.9c-0.1,4.9-0.9,9.7-2.2,14.3
		C222.5,215.5,222.2,216.6,221.8,217.9z M211.6,181c0.1-0.2,0.1-0.4,0.2-0.6c1.4-5.5,2.8-11,3.9-16.6c0.6-3.5,1.1-7,1-10.6
		c-0.1-2-0.4-3.9-1.3-5.7c-1-2.1-2.7-3.5-5-3.9c-2.5-0.4-4.7,0.2-6.7,1.6c-2.6,1.8-4.1,4.3-5.2,7.3c-0.9,2.5-1.1,5.1-1.2,7.7
		c-0.1,3.4,0.1,6.7,0.6,10c0.4,2.8,0.8,5.6,1.2,8.4c0.1,0.7,0.2,1.5,0.3,2.3C203.5,180.3,207.5,180.2,211.6,181z M194.9,163.5
		c0-1.2,0-2.2,0-3.1c0.1-3.8,0.5-7.4,2.1-10.9c0.2-0.3,0.1-0.6,0-1c-0.4-1.2-0.9-2.3-1.2-3.5c-1.8-6.6-2.5-13.3-3.3-20
		c-0.3-2.7-0.7-5.5-1.1-8.2c-0.3-1.8-0.8-3.5-1.6-5.1c-0.5-1.1-1.2-2.1-2.3-2.7c-1.4-0.9-2.3-0.7-3.2,0.7c-0.5,0.8-0.9,1.8-1.2,2.8
		c-0.9,2.9-1.1,5.9-1.3,8.9c-0.1,3.4,0,6.7,0.3,10.1c0.4,4.8,1.3,9.4,2.6,14c1.9,6.4,4.8,12.4,9.4,17.4
		C194.4,163,194.5,163.2,194.9,163.5z M186.3,225.4c-0.1-0.4-0.2-0.5-0.2-0.7c-0.6-1.8-1.3-3.6-1.8-5.5c-1-3.2-1.7-6.4-2.3-9.7
		c-0.1-0.4-0.2-0.9-0.5-1.2c-2.1-2.5-4.6-4.5-7.3-6.1c-0.6-0.4-1.3-0.6-1.9-0.9c-2.5-1-4.8-0.5-6.8,1.4c-1.1,1.1-1.9,2.3-2.6,3.8
		c-1.2,2.6-1,5.2,0.3,7.7c0.8,1.5,2,2.8,3.4,3.8c2.3,1.8,4.9,3.2,7.7,4.2c2.7,1,5.5,1.7,8.3,2.4C183.8,224.8,185,225.1,186.3,225.4z
		 M244.8,179.4c-0.1-0.8-0.3-1.6-0.4-2.3c-0.7-4.1-1.4-8.2-2.4-12.3c-0.5-2.1-1.1-4.2-2-6.2c-0.4-0.9-0.9-1.8-1.7-2.5
		c-1.2-1.2-2.7-1.2-3.9,0c-0.8,0.8-1.3,1.7-1.6,2.8c-0.5,2.1-0.5,4.3-0.3,6.5c0.3,4.3,1.1,8.5,2.5,12.6c0.5,1.5,1.1,3.1,1.6,4.7
		C239.1,181,241.7,179.6,244.8,179.4z M243.3,158.8c2-0.7,3.7-1.8,5.2-3.2c2.8-2.7,4.5-6,5.6-9.6c0.6-1.9,0.9-3.8,0.7-5.8
		c-0.1-1.2-0.4-2.4-1.2-3.4c-1.2-1.5-2-1.3-3-0.1c-0.6,0.8-1.2,1.7-1.6,2.7c-0.7,1.7-1.3,3.4-1.9,5.2c-1.2,3.6-2.7,7.1-4.9,10.3
		c-0.2,0.3-0.3,0.6-0.5,0.8C242.3,156.8,242.8,157.8,243.3,158.8z M194.1,116.2c0.9-0.7,1.8-1.5,2.7-2.2c2-1.6,3.9-3.4,5.5-5.5
		c1-1.3,1.7-2.7,2-4.4c0.2-1.4,0.1-2.8-0.4-4.1c-0.5-1.1-1.3-1.7-2.6-1.7c-1.2,0-2.3,0.4-3.3,1c-1.3,0.9-2.4,2.1-3.2,3.5
		c-1.1,2-2.2,4-3.2,5.9c-0.2,0.3-0.1,0.5,0,0.8c0.4,0.7,0.8,1.4,1,2.1C193.2,113.2,193.6,114.7,194.1,116.2z M211,141
		c-0.2-1.8-0.1-3.6-0.8-5.4c-0.9,1.8-0.8,3.5-0.6,5.3C210,140.9,210.4,140.9,211,141z M217.6,228.1c-0.2,0.5-0.4,0.9-0.7,1.5
		c1.3-0.3,2.5-0.4,3.9-0.7C219.7,228.4,218.8,228.1,217.6,228.1z M171.9,195.1c-0.1,0-0.2,0-0.3,0c-0.2,1.2-0.4,2.3-0.5,3.5
		c0.4,0.1,0.8,0.2,1.3,0.3C172.1,197.6,172.3,196.3,171.9,195.1z M253.3,183.9c0.9-1.1,1.4-1.9,1.4-2.7c-0.8,0.5-1.5,1-2.3,1.6
		C252.7,183.2,253,183.5,253.3,183.9z M195.7,171c-0.8,0.5-1.6,0.9-2.3,1.8c1-0.1,1.7-0.2,2.6-0.2
		C195.9,172.1,195.8,171.6,195.7,171z M182.1,227.2c-0.1,1.1-0.2,2.1-0.2,3.1c0.1,0,0.2,0,0.2,0c0.4-0.9,0.7-1.9,1.1-2.9
		C182.8,227.4,182.5,227.3,182.1,227.2z M176.5,130.2c0.9,0.3,1.7,0.3,2.5,0.2c0-0.4-0.1-0.8-0.1-1.2
		C178.1,129.4,177.3,129.5,176.5,130.2z M165.6,220.7c-0.7,1.1-1,2-0.9,2.8c0.6-0.8,1.2-1.5,1.8-2.2
		C166.2,221.1,165.9,220.9,165.6,220.7z M220.4,170c0-0.1,0-0.1,0.1-0.2c-0.8-0.4-1.7-0.8-2.6-1.2c-0.1,0.4-0.1,0.7-0.2,1.1
		C218.6,169.8,219.5,169.9,220.4,170z M242.3,143c0,0.1-0.1,0.1-0.1,0.2c0.4,0.7,0.9,1.3,1.7,1.7c0.1-0.4,0.2-0.7,0.3-1.1
		C243.6,143.6,243,143.3,242.3,143z M186.2,156.6c-0.2-0.4-0.3-0.6-0.5-1c-0.7,0.5-1.3,1-2,1.5c0,0.1,0.1,0.1,0.1,0.2
		C184.5,157,185.3,156.8,186.2,156.6z M188.4,185.1c-0.6-0.5-1.1-1-1.8-1.6c0.3,0.9,0.6,1.6,0.9,2.3
		C187.8,185.6,188.1,185.4,188.4,185.1z M185.3,105.7c-0.4-0.9-0.7-1.7-1-2.4c-0.2,0.9-0.2,1.7,0.1,2.6
		C184.8,105.8,185,105.8,185.3,105.7z M182.1,196c-0.8-0.2-1.6-0.3-2.3-0.5c0,0.1,0,0.1-0.1,0.2c0.6,0.5,1.3,0.9,2.2,1.1
		C181.9,196.6,182,196.3,182.1,196z M246.6,172.1c0.7-0.6,1.3-1.2,1.9-1.7c0-0.1-0.1-0.1-0.1-0.2c-0.7,0.3-1.3,0.6-2,0.9
		C246.5,171.5,246.6,171.7,246.6,172.1z M257,137.9c0.1,0.4,0.2,0.6,0.3,1c0.6-0.7,1-1.3,1.5-1.9c0-0.1-0.1-0.1-0.1-0.2
		C258.1,137.1,257.6,137.5,257,137.9z M256.2,199.8c0-0.1,0-0.1,0-0.2c-0.5-0.1-1.1-0.1-1.6-0.2c-0.5-0.1-0.8,0.1-0.8,0.7
		C254.6,200,255.4,199.9,256.2,199.8z M236.8,213.7c0.5,0.6,0.9,1,1.4,1.5c0-0.5-0.1-0.9-0.2-1.3c-0.1-0.2-0.2-0.4-0.3-0.6
		C237.4,213.4,237.1,213.5,236.8,213.7z M229,166.3c0,0.1,0,0.1,0.1,0.2c0.4,0,0.7,0.1,1.2,0.1c-0.1-0.3-0.1-0.6-0.2-0.9
		C229.7,165.9,229.4,166.1,229,166.3z M229.8,188.2c0,0-0.1,0.1-0.1,0.1c0.1,0.2,0.3,0.4,0.4,0.6c0.1,0,0.1-0.1,0.2-0.1
		C230.1,188.7,229.9,188.4,229.8,188.2z"/>
	<path class="st88" d="M199,219.3c0.9,0.1,1.9,0.3,3,0.5c0.3,0.1,0.6,0.2,0.8,0.4c0.1,0.1,0.2,0.5,0.1,0.7c0,0.1-0.3,0.3-0.5,0.3
		c-1.3-0.2-2.6-0.4-4-0.6c-0.4-0.1-0.8-0.1-0.8-0.7c0-0.4,0.3-0.5,1-0.5C198.7,219.3,198.7,219.3,199,219.3z"/>
	<path class="st88" d="M214.1,203.9c0-0.1,0-0.2,0-0.3c0-0.3,0.1-0.6,0.4-0.7c0.4-0.1,0.6,0.2,0.7,0.5c0.2,0.7,0.3,1.5,0.5,2.2
		c0.1,0.3,0.1,0.6,0.2,0.9c0.1,0.3,0.1,0.5-0.2,0.7c-0.3,0.2-0.6,0.1-0.8-0.2c-0.1-0.1-0.2-0.2-0.2-0.4
		C214.5,205.8,214.2,204.8,214.1,203.9C214,203.9,214.1,203.9,214.1,203.9z"/>
	<path class="st88" d="M200.8,205.3c-0.1,0.8-0.2,1.7-0.4,2.7c0,0.3-0.1,0.6-0.4,0.5c-0.2,0-0.4-0.3-0.6-0.5c-0.1-0.1-0.1-0.4,0-0.5
		c0.1-0.9,0.2-1.9,0.3-2.8c0-0.1,0-0.2,0-0.4c0.1-0.5,0.4-0.8,0.7-0.7c0.4,0.1,0.4,0.5,0.5,0.8C200.8,204.6,200.8,204.9,200.8,205.3
		z"/>
	<path class="st88" d="M203.4,233.5c-0.4-0.1-1-0.1-1.6-0.3c-0.3-0.1-0.7-0.2-0.9-0.4c-0.2-0.1-0.3-0.4-0.3-0.6
		c0-0.1,0.3-0.3,0.5-0.4c0.1-0.1,0.3,0,0.4,0c1,0.1,2,0.3,3,0.4c0.4,0.1,0.7,0.2,0.6,0.6c0,0.4-0.4,0.5-0.7,0.6
		C204.1,233.6,203.9,233.6,203.4,233.5z"/>
	<path class="st88" d="M206.4,193.5c0,0.4,0,0.9,0,1.3c0,0.4-0.2,0.7-0.6,0.7c-0.4,0-0.6-0.2-0.6-0.6c0-0.9,0-1.8,0-2.7
		c0-0.4,0.2-0.7,0.6-0.6c0.4,0,0.6,0.3,0.6,0.7C206.5,192.7,206.4,193.1,206.4,193.5C206.4,193.5,206.4,193.5,206.4,193.5z"/>
	<path class="st88" d="M191.6,197.2c0,0.5-0.5,0.8-0.8,0.5c-0.6-0.5-1.2-1-1.8-1.6c-0.1-0.1-0.3-0.3-0.3-0.4c-0.1-0.2-0.1-0.5,0-0.6
		c0.1-0.1,0.5-0.1,0.6,0c0.4,0.2,0.7,0.6,1.1,0.9c0.3,0.3,0.6,0.6,0.9,0.9C191.4,196.9,191.5,197.1,191.6,197.2z"/>
	<path class="st88" d="M244.5,191.1c0.1,0.1,0.3,0.1,0.5,0.3c0.7,0.5,1.3,1.1,2,1.6c0.3,0.2,0.6,0.5,1,0.5c0.2,0,0.4,0.2,0.6,0.4
		c0.3,0.3,0.3,0.8,0.1,1.1c-0.3,0.3-0.6,0.5-1,0.3c-1.4-0.9-2.7-1.8-3.7-3.1C243.6,191.8,243.9,191.2,244.5,191.1z"/>
	<path class="st88" d="M238.6,194.1c-0.1,0.3-0.2,0.6-0.3,0.8c-0.4,1.1-0.8,2.1-1.3,3.2c-0.1,0.3-0.3,0.6-0.6,0.8
		c-0.1,0.1-0.4,0.1-0.6,0c-0.1-0.1-0.2-0.3-0.2-0.5c0-0.1,0-0.2,0.1-0.4c0.5-1.3,0.9-2.6,1.4-3.9c0.1-0.2,0.2-0.4,0.4-0.5
		c0.2-0.1,0.5-0.2,0.7-0.1C238.5,193.6,238.5,193.9,238.6,194.1z"/>
	<path class="st88" d="M233.3,208.6c-1.2-0.2-2.6-0.4-4-0.7c-0.1,0-0.2-0.1-0.3-0.1c-0.3-0.1-0.6-0.2-0.6-0.6c0-0.5,0.4-0.5,0.8-0.5
		c1.5,0.2,3.1,0.4,4.6,0.6c0.1,0,0.3,0,0.3,0.1c0.1,0.2,0.3,0.4,0.3,0.6c0,0.1-0.2,0.3-0.4,0.4C233.9,208.6,233.7,208.5,233.3,208.6
		z"/>
	<path class="st88" d="M202.8,171c0.4,0.1,0.7,0.1,0.9,0.2c0.8,0.2,1.5,0.5,2.3,0.7c0.3,0.1,0.5,0.3,0.5,0.7
		c-0.1,0.4-0.4,0.5-0.8,0.5c-1-0.3-2-0.6-3.1-0.9c-0.3-0.1-0.6-0.3-0.4-0.7C202.3,171.2,202.7,171.1,202.8,171z"/>
	<path class="st88" d="M205.2,148.7c-0.2-0.1-0.5-0.2-0.5-0.4c-0.1-0.2,0.1-0.5,0.2-0.6c0.2-0.2,0.5-0.3,0.8-0.4
		c0.7-0.2,1.4-0.4,2.1-0.5c0.3-0.1,0.6,0,0.7,0.4c0.1,0.3-0.1,0.6-0.3,0.6C207.2,148.1,206.2,148.4,205.2,148.7z"/>
	<path class="st88" d="M213.4,162.8c0,0.4,0,0.8,0,1.3c0,0.3-0.2,0.6-0.5,0.6c-0.2,0-0.5-0.3-0.6-0.5c-0.1-0.9-0.1-1.8-0.1-2.7
		c0-0.1,0.1-0.3,0.2-0.4c0.2-0.1,0.4-0.2,0.6-0.2c0.1,0,0.3,0.3,0.3,0.4C213.4,161.8,213.4,162.3,213.4,162.8
		C213.4,162.8,213.4,162.8,213.4,162.8z"/>
	<path class="st88" d="M206.4,155.2c0.1,0.1,0.3,0.2,0.4,0.4c0.3,0.8,0.6,1.6,0.9,2.5c0.1,0.3-0.2,0.6-0.5,0.5
		c-0.2,0-0.4-0.2-0.5-0.3c-0.5-0.7-0.8-1.6-0.9-2.4C205.6,155.5,205.9,155.2,206.4,155.2z"/>
	<path class="st88" d="M191.1,148.1c-0.8-0.1-1.6-0.3-2.4-0.4c-0.3-0.1-0.7-0.2-0.6-0.6c0.1-0.2,0.4-0.5,0.6-0.5
		c1.1,0.1,2.3,0.2,3.4,0.4c0.1,0,0.3,0.4,0.3,0.5c0,0.2-0.3,0.4-0.5,0.4C191.7,148.1,191.4,148,191.1,148.1
		C191.1,148,191.1,148.1,191.1,148.1z"/>
	<path class="st88" d="M187.7,116.3c-0.3,1.1-0.5,2.1-0.8,3.1c0,0.2-0.4,0.4-0.5,0.4c-0.2,0-0.3-0.3-0.5-0.5c-0.1-0.1,0-0.2,0-0.4
		c0.2-0.8,0.3-1.7,0.5-2.5c0-0.1,0.1-0.2,0.1-0.3c0.1-0.3,0.4-0.5,0.7-0.4C187.5,115.9,187.6,116.2,187.7,116.3z"/>
	<path class="st88" d="M187.3,127.7c-0.6-0.1-1.2-0.2-1.9-0.4c-0.3-0.1-0.6-0.3-0.5-0.6c0.1-0.3,0.4-0.5,0.7-0.5
		c0.7,0.1,1.5,0.3,2.2,0.5c0.2,0,0.4,0.4,0.3,0.5c0,0.2-0.3,0.3-0.5,0.4C187.5,127.7,187.4,127.6,187.3,127.7
		C187.3,127.7,187.3,127.7,187.3,127.7z"/>
	<path class="st88" d="M180.6,218.2c-0.1,0.1-0.2,0.3-0.3,0.4c-0.9,0.5-1.8,0.9-2.7,1.3c-0.2,0.1-0.5,0-0.6-0.2
		c-0.1-0.1,0-0.4,0.1-0.6c0.1-0.2,0.3-0.4,0.6-0.5c0.7-0.3,1.4-0.7,2.2-1C180.2,217.5,180.5,217.7,180.6,218.2z"/>
	<path class="st88" d="M171.4,209.3c0.1-0.2,0.3-0.5,0.5-0.6c0.4-0.2,0.6,0.2,0.7,0.5c0.2,0.7,0.3,1.4,0.4,2.1
		c0,0.2-0.1,0.4-0.3,0.5c-0.1,0.1-0.4,0-0.6-0.1c-0.2-0.1-0.3-0.3-0.4-0.5C171.7,210.7,171.6,210.1,171.4,209.3z"/>
	<path class="st88" d="M239.7,173.7c-0.1,0.4-0.2,0.6-0.3,0.9c-0.3,0.8-0.6,1.7-0.9,2.5c-0.1,0.2-0.2,0.4-0.3,0.6
		c-0.1,0.1-0.4,0.2-0.6,0.2c-0.2-0.1-0.3-0.3-0.4-0.6c0-0.1,0-0.2,0.1-0.3c0.3-1,0.7-2,1-3c0-0.1,0.1-0.3,0.2-0.4
		c0.2-0.1,0.5-0.3,0.7-0.3C239.5,173.2,239.6,173.5,239.7,173.7z"/>
	<path class="st88" d="M238.7,163.8c-0.3-0.1-0.5-0.2-0.7-0.2c-0.7-0.4-1.5-0.8-2.2-1.3c-0.3-0.2-0.6-0.4-0.4-0.9
		c0.1-0.3,0.6-0.4,1.1-0.1c0.9,0.4,1.7,0.9,2.5,1.4c0.2,0.1,0.4,0.5,0.4,0.6C239.2,163.5,238.9,163.6,238.7,163.8z"/>
	<path class="st88" d="M249.3,148.4c0.1-0.2,0.1-0.4,0.2-0.6c0.7-0.8,1.4-1.7,2.2-2.5c0.2-0.2,0.4-0.4,0.7-0.5
		c0.2-0.1,0.5,0,0.6,0.2c0.1,0.1,0.1,0.5,0,0.6c-0.3,0.4-0.7,0.8-1.1,1.2c-0.4,0.4-0.8,0.8-1.2,1.2
		C250.3,148.6,249.9,148.7,249.3,148.4z"/>
	<path class="st88" d="M196.9,107.3c0.2-1.2,0.3-2.2,0.5-3.3c0-0.2,0.1-0.4,0.2-0.5c0.1-0.1,0.4-0.3,0.5-0.3
		c0.2,0.1,0.4,0.3,0.5,0.4c0.1,0.1,0.1,0.4,0,0.5c-0.2,1-0.3,1.9-0.5,2.9c0,0.1,0,0.2-0.1,0.3c-0.1,0.3-0.3,0.6-0.7,0.5
		C197.2,107.8,197,107.5,196.9,107.3z"/>
</g>
</svg>
